<svg width="16" height="16" viewBox="0 0 16 16" fill="none" xmlns="http://www.w3.org/2000/svg">
<g clip-path="url(#clip0_349_5623)">
<path d="M14.6668 8.00065C14.6668 11.6825 11.6821 14.6673 8.00016 14.6673C4.31826 14.6673 1.3335 11.6825 1.3335 8.00065C1.3335 4.31875 4.31826 1.33398 8.00016 1.33398C11.6821 1.33398 14.6668 4.31875 14.6668 8.00065Z" stroke="#0D71BA" stroke-width="1.5"/>
<path d="M10 9.33398C10 10.0704 9.40305 10.6673 8.66667 10.6673H8C7.37874 10.6673 7.06812 10.6673 6.82309 10.5658C6.49638 10.4305 6.23682 10.1709 6.10149 9.84423C6 9.5992 6 9.28857 6 8.66732V7.33398C6 6.71273 6 6.4021 6.10149 6.15707C6.23682 5.83037 6.49638 5.5708 6.82309 5.43548C7.06812 5.33398 7.37874 5.33398 8 5.33398H8.66667C9.40305 5.33398 10 5.93094 10 6.66732" stroke="#0D71BA" stroke-width="1.5" stroke-linecap="round"/>
</g>
<defs>
<clipPath id="clip0_349_5623">
<rect width="16" height="16" fill="white"/>
</clipPath>
</defs>
</svg>
