<svg width="21" height="21" viewBox="0 0 21 21" fill="none" xmlns="http://www.w3.org/2000/svg">
<path d="M14.1717 5.00158C13.2961 5.0015 12.5175 5.00144 11.8889 5.08598C11.2057 5.17787 10.5158 5.38975 9.9519 5.95378C9.38805 6.51782 9.17623 7.20794 9.08437 7.89139C8.99986 8.52019 8.99992 9.29905 9 10.1749L9 11.0035H8.25C7.55964 11.0035 7 11.5633 7 12.2539C7 12.9444 7.55964 13.5043 8.25 13.5043H9V19.5017C9 19.976 9 20.2131 8.85131 20.36C8.70261 20.5069 8.46731 20.5039 7.9967 20.4979C6.80726 20.4829 5.79575 20.4412 4.93802 20.3258C3.56137 20.1407 2.46911 19.7535 1.61091 18.895C0.752716 18.0366 0.365681 16.944 0.180595 15.5669C-2.24411e-05 14.223 -1.24731e-05 12.5018 2.12041e-07 10.3104V10.196C-1.24731e-05 8.00465 -2.24411e-05 6.28341 0.180595 4.93958C0.365681 3.56249 0.752716 2.46989 1.61091 1.61142C2.46911 0.752951 3.56137 0.365796 4.93802 0.180651C6.28143 -2.26718e-05 8.00214 -1.31268e-05 10.1928 2.28812e-07H10.3072C12.4979 -1.31268e-05 14.2186 -2.26718e-05 15.562 0.180651C16.9386 0.365796 18.0309 0.752951 18.8891 1.61142C19.7473 2.46989 20.1343 3.56249 20.3194 4.93958C20.5 6.28341 20.5 8.00466 20.5 10.196V10.3104C20.5 12.5018 20.5 14.223 20.3194 15.5669C20.1343 16.944 19.7473 18.0366 18.8891 18.895C18.0309 19.7535 16.9386 20.1407 15.562 20.3258C14.7043 20.4412 13.6927 20.4829 12.5033 20.4979C12.0327 20.5039 11.7974 20.5069 11.6487 20.36C11.5 20.2131 11.5 19.976 11.5 19.5017V13.5043H13.25C13.9404 13.5043 14.5 12.9444 14.5 12.2539C14.5 11.5633 13.9404 11.0035 13.25 11.0035H11.5V10.2532C11.5 9.27478 11.5027 8.66673 11.5621 8.22461C11.6157 7.82558 11.6949 7.74675 11.7185 7.72331L11.7197 7.72211L11.7209 7.7209C11.7443 7.69734 11.8231 7.61811 12.222 7.56447C12.664 7.50502 13.2719 7.50237 14.25 7.50237H15.25C15.9404 7.50237 16.5 6.94255 16.5 6.25198C16.5 5.5614 15.9404 5.00158 15.25 5.00158L14.1717 5.00158Z" fill="#0D71BA"/>
</svg>
