<svg width="586" height="442" viewBox="0 0 586 442" fill="none" xmlns="http://www.w3.org/2000/svg">
<rect x="289.5" y="2.5" width="290.02" height="181" rx="37.5" stroke="#F3F8FC"/>
<rect x="0.5" y="293.832" width="212.841" height="147.2" rx="32.5" stroke="#F3F8FC"/>
<mask id="path-3-outside-1_1810_8494" maskUnits="userSpaceOnUse" x="0" y="0" width="586" height="442" fill="black">
<rect fill="white" width="586" height="442"/>
<path d="M255.733 1C271.197 1 283.733 13.536 283.733 29V144.385C283.733 170.342 304.776 191.385 330.733 191.385H553C570.673 191.385 585 205.712 585 223.385V408.999C585 426.672 570.673 440.999 553 440.999H252C234.327 440.999 220 426.672 220 408.999V330.733C220 304.776 198.957 283.733 173 283.733H29C13.536 283.733 1 271.197 1 255.733V29C1.00002 13.536 13.536 1 29 1H255.733Z"/>
</mask>
<path d="M283.733 29H284.733V29H283.733ZM252 440.999V441.999V441.999V440.999ZM29 283.733L29 284.733H29V283.733ZM1 29L0 29V29H1ZM29 1V0V0V1ZM255.733 1V2C270.645 2 282.733 14.0883 282.733 29H283.733H284.733C284.733 12.9837 271.75 0 255.733 0V1ZM283.733 29H282.733V144.385H283.733H284.733V29H283.733ZM330.733 191.385V192.385H553V191.385V190.385H330.733V191.385ZM553 191.385V192.385C570.121 192.385 584 206.264 584 223.385H585H586C586 205.159 571.225 190.385 553 190.385V191.385ZM585 223.385H584V408.999H585H586V223.385H585ZM585 408.999H584C584 426.12 570.121 439.999 553 439.999V440.999V441.999C571.225 441.999 586 427.224 586 408.999H585ZM553 440.999V439.999H252V440.999V441.999H553V440.999ZM252 440.999V439.999C234.879 439.999 221 426.12 221 408.999H220H219C219 427.224 233.775 441.999 252 441.999V440.999ZM220 408.999H221V330.733H220H219V408.999H220ZM173 283.733V282.733H29V283.733V284.733H173V283.733ZM29 283.733L29 282.733C14.0883 282.733 2 270.645 2 255.733H1H0C0 271.75 12.9838 284.733 29 284.733L29 283.733ZM1 255.733H2V29H1H0V255.733H1ZM1 29L2 29C2.00002 14.0883 14.0883 2 29 2V1V0C12.9838 5.36442e-07 2.05636e-05 12.9838 0 29L1 29ZM29 1V2H255.733V1V0H29V1ZM220 330.733H221C221 304.224 199.51 282.733 173 282.733V283.733V284.733C198.405 284.733 219 305.328 219 330.733H220ZM283.733 144.385H282.733C282.733 170.894 304.224 192.385 330.733 192.385V191.385V190.385C305.328 190.385 284.733 169.79 284.733 144.385H283.733Z" fill="#F3F8FC" mask="url(#path-3-outside-1_1810_8494)"/>
</svg>
