<svg width="24" height="24" viewBox="0 0 24 24" fill="none" xmlns="http://www.w3.org/2000/svg">
<path d="M15.6183 16.0098C15.7219 16.0162 15.8697 16.0325 16.0255 16.0957C16.4997 16.2882 16.797 16.7414 16.8195 17.2305C16.8268 17.3903 16.7976 17.5308 16.7716 17.6318C16.7472 17.7271 16.712 17.838 16.6769 17.9482C16.5548 18.333 16.4273 18.7326 16.2677 18.9961C16.0248 19.3969 15.6769 19.7185 15.2658 19.9268L15.1779 20.3721C15.0869 20.8315 15.0042 21.2469 14.8068 21.5957C14.5042 22.1303 14.0078 22.5431 13.4054 22.7422C13.0103 22.8727 12.4611 22.8719 11.9982 22.8711C11.5354 22.8719 10.9861 22.8726 10.591 22.7422C9.98845 22.5432 9.49124 22.1304 9.18861 21.5957C8.9913 21.2469 8.90947 20.8314 8.8185 20.3721L8.72865 19.9248C8.3193 19.7165 7.9727 19.3956 7.73061 18.9961C7.57106 18.7326 7.44451 18.3329 7.3224 17.9482C7.2873 17.8379 7.25216 17.7272 7.22768 17.6318C7.20172 17.5307 7.17153 17.3904 7.17885 17.2305C7.20133 16.7415 7.49873 16.2882 7.97279 16.0957C8.12847 16.0325 8.27643 16.0162 8.38002 16.0098C8.47704 16.0038 8.59143 16.0039 8.70131 16.0039H15.298C15.4077 16.0039 15.5214 16.0038 15.6183 16.0098ZM10.6779 20.1885C10.7617 20.5937 10.7884 20.684 10.8224 20.7441C10.9101 20.8991 11.0465 21.0054 11.1954 21.0547C11.2554 21.0745 11.3521 21.0869 11.9982 21.0869C12.6435 21.0869 12.74 21.0745 12.7999 21.0547C12.9489 21.0055 13.0852 20.899 13.173 20.7441C13.207 20.6841 13.2337 20.5936 13.3175 20.1885H10.6779Z" fill="#000305"/>
<path fill-rule="evenodd" clip-rule="evenodd" d="M12 6.625C8.9916 6.625 6.5 9.14999 6.5 12.3309C6.5 13.186 6.68072 13.994 7.00304 14.7185C7.22753 15.2231 7.00045 15.8142 6.49585 16.0387C5.99124 16.2632 5.4002 16.0361 5.17571 15.5315C4.74122 14.5548 4.5 13.4701 4.5 12.3309C4.5 8.10466 7.8287 4.625 12 4.625C16.1713 4.625 19.5 8.10466 19.5 12.3309C19.5 13.4701 19.2588 14.5548 18.8243 15.5315C18.5998 16.0361 18.0088 16.2632 17.5042 16.0387C16.9996 15.8142 16.7725 15.2231 16.997 14.7185C17.3193 13.994 17.5 13.186 17.5 12.3309C17.5 9.14999 15.0084 6.625 12 6.625Z" fill="#000305"/>
<path fill-rule="evenodd" clip-rule="evenodd" d="M12 1.125C12.5523 1.125 13 1.57272 13 2.125V3.125C13 3.67728 12.5523 4.125 12 4.125C11.4477 4.125 11 3.67728 11 3.125V2.125C11 1.57272 11.4477 1.125 12 1.125ZM19.7774 4.34685C20.1679 4.73737 20.1679 5.37054 19.7774 5.76106L19.0703 6.46817C18.6798 6.85869 18.0466 6.85869 17.6561 6.46817C17.2656 6.07764 17.2656 5.44448 17.6561 5.05395L18.3632 4.34685C18.7537 3.95632 19.3869 3.95632 19.7774 4.34685ZM4.22251 4.34726C4.61303 3.95674 5.24619 3.95674 5.63672 4.34726L6.34383 5.05437C6.73435 5.44489 6.73435 6.07806 6.34383 6.46858C5.9533 6.85911 5.32014 6.85911 4.92961 6.46858L4.22251 5.76147C3.83198 5.37095 3.83198 4.73779 4.22251 4.34726ZM1 12.125C1 11.5727 1.44772 11.125 2 11.125H3C3.55228 11.125 4 11.5727 4 12.125C4 12.6773 3.55228 13.125 3 13.125H2C1.44772 13.125 1 12.6773 1 12.125ZM20 12.125C20 11.5727 20.4477 11.125 21 11.125H22C22.5523 11.125 23 11.5727 23 12.125C23 12.6773 22.5523 13.125 22 13.125H21C20.4477 13.125 20 12.6773 20 12.125Z" fill="#000305"/>
</svg>
