<svg width="21" height="21" viewBox="0 0 21 21" fill="none" xmlns="http://www.w3.org/2000/svg">
<path d="M10.3076 20.5C12.4979 20.5 14.2183 20.4999 15.5615 20.3193C16.9382 20.1342 18.0305 19.7469 18.8887 18.8887C19.7469 18.0305 20.1342 16.9382 20.3193 15.5615C20.4999 14.2183 20.5 12.4979 20.5 10.3076V10.1924C20.5 8.00214 20.4999 6.28173 20.3193 4.93848C20.1342 3.56182 19.7469 2.46953 18.8887 1.61133C18.0305 0.75313 16.9382 0.365751 15.5615 0.180664C14.2183 0.000118256 12.4979 -1.33514e-05 10.3076 0H10.1924C8.00214 -1.33514e-05 6.28173 0.000118256 4.93848 0.180664C3.56182 0.365751 2.46953 0.75313 1.61133 1.61133C0.75313 2.46953 0.365751 3.56182 0.180664 4.93848C0.000117304 6.28174 -1.31506e-05 8.00212 2.00632e-07 10.1924L2.00632e-07 10.3076C-1.31506e-05 12.4979 0.000117304 14.2183 0.180664 15.5615C0.365751 16.9382 0.753131 18.0305 1.61133 18.8887C2.46953 19.7469 3.56182 20.1342 4.93848 20.3193C6.28174 20.4999 8.00212 20.5 10.1924 20.5H10.3076ZM5.25098 6.5C4.56062 6.5 4.00098 5.94036 4.00098 5.25C4.00098 4.55964 4.56062 4 5.25098 4H5.25977C5.95003 4.0001 6.50977 4.55971 6.50977 5.25C6.50977 5.94029 5.95003 6.4999 5.25977 6.5H5.25098ZM15.252 16.25C14.6998 16.2499 14.252 15.8022 14.252 15.25L14.252 11.25C14.252 10.1455 13.3564 9.2501 12.252 9.25C11.1475 9.2501 10.252 10.1455 10.252 11.25L10.252 15.25C10.252 15.8022 9.80415 16.2499 9.25195 16.25C8.69976 16.2499 8.25195 15.8022 8.25195 15.25L8.25195 8.25C8.25195 7.69778 8.69976 7.2501 9.25195 7.25C9.65716 7.25008 10.0061 7.49134 10.1631 7.83789C10.7709 7.46507 11.4866 7.25004 12.252 7.25C14.461 7.2501 16.252 9.04093 16.252 11.25V15.25C16.252 15.8022 15.8041 16.2499 15.252 16.25ZM5.25195 16.25C4.69976 16.2499 4.25195 15.8022 4.25195 15.25L4.25195 8.75C4.25195 8.19778 4.69976 7.7501 5.25195 7.75C5.80415 7.7501 6.25195 8.19778 6.25195 8.75L6.25195 15.25C6.25195 15.8022 5.80415 16.2499 5.25195 16.25Z" fill="#0D71BA"/>
</svg>
