<svg width="18" height="22" viewBox="0 0 18 22" fill="none" xmlns="http://www.w3.org/2000/svg">
<path d="M2.99794 15.1772C3.45239 15.4911 3.56638 16.1139 3.25254 16.5683C2.67012 17.4117 2.30838 17.9884 2.12382 18.4248C1.9515 18.8322 2.00571 18.9469 2.01938 18.9758L2.02019 18.9776C2.03784 19.0154 2.05874 19.0525 2.08287 19.0883C2.11863 19.1414 2.25287 19.3041 2.99963 19.4019C3.73331 19.498 4.76785 19.5001 6.2825 19.5001H11.718C13.2327 19.5001 14.2672 19.498 15.0009 19.4019C15.7477 19.3041 15.8819 19.1414 15.9177 19.0883L15.9804 18.9776L15.9812 18.9758C15.9948 18.9469 16.049 18.8322 15.8767 18.4248C15.6922 17.9884 15.3304 17.4117 14.748 16.5683C14.4342 16.1139 14.5482 15.4911 15.0026 15.1772C15.4571 14.8634 16.0799 14.9774 16.3937 15.4318C16.9658 16.2603 17.4433 16.9945 17.7187 17.6457C18.0028 18.3172 18.1437 19.0704 17.7931 19.8225C17.7311 19.9556 17.6586 20.0836 17.5766 20.2054C17.0379 21.0055 16.1424 21.2695 15.2607 21.385C14.3813 21.5002 13.2141 21.5001 11.793 21.5001H6.20757H6.20757C4.78644 21.5001 3.61928 21.5002 2.73987 21.385C1.85814 21.2695 0.962671 21.0055 0.423899 20.2054C0.34191 20.0836 0.269491 19.9556 0.20744 19.8225C-0.143136 19.0704 -0.00221726 18.3172 0.281804 17.6457C0.55721 16.9945 1.03474 16.2603 1.60683 15.4318C1.92067 14.9774 2.54349 14.8634 2.99794 15.1772Z" fill="#0D71BA"/>
<path d="M9.00077 0C12.0514 0.000182447 14.9485 1.85507 16.159 4.76562C17.2845 7.47216 16.6739 9.78368 15.41 11.7529C14.3664 13.3789 12.839 14.8266 11.4803 16.1143V16.1152C11.2397 16.3432 11.0044 16.5662 10.7781 16.7842C10.3009 17.2437 9.66335 17.4999 9.00077 17.5C8.338 17.5 7.69978 17.2439 7.22245 16.7842L7.22148 16.7822C6.98212 16.5503 6.73182 16.3133 6.47636 16.0703C5.13193 14.7916 3.62537 13.3576 2.59257 11.752C1.32721 9.7847 0.714693 7.47541 1.84159 4.76562C3.05214 1.85491 5.94995 0 9.00077 0ZM8.9998 4.75C7.34294 4.75 5.9998 6.09315 5.9998 7.75C5.9998 9.40685 7.34294 10.75 8.9998 10.75C10.6567 10.75 11.9998 9.40685 11.9998 7.75C11.9998 6.09315 10.6567 4.75 8.9998 4.75Z" fill="#0D71BA"/>
</svg>
