<svg width="172" height="50" viewBox="0 0 172 50" fill="none" xmlns="http://www.w3.org/2000/svg">
<g clip-path="url(#clip0_630_4209)">
<path d="M24.6677 49.9984C38.2912 49.9984 49.3353 38.8059 49.3353 24.9992C49.3353 11.1925 38.2912 0 24.6677 0C11.0441 0 0 11.1925 0 24.9992C0 38.8059 11.0441 49.9984 24.6677 49.9984Z" fill="#0D71BA"/>
<path d="M11.6052 21.2157L11.5908 20.1472C11.5908 18.4622 11.8584 17.2388 12.3919 16.477C13.0257 15.5748 14.1342 15.1228 15.7172 15.1228H21.2244C22.2246 15.1228 22.9269 14.997 23.333 14.7468C23.54 14.6161 23.7104 14.4611 23.8379 14.2803C24.0449 13.9898 24.1755 13.6686 24.2233 13.3168L24.3714 12.2031H24.9654L25.1135 13.3168C25.1645 13.6686 25.2919 13.9882 25.4989 14.2803C25.776 14.6612 26.2076 14.9114 26.7905 15.0325C27.0867 15.0922 27.5279 15.1228 28.1124 15.1228H33.6196C35.2026 15.1228 36.3126 15.5748 36.9449 16.477C37.48 17.2388 37.746 18.4622 37.746 20.1472C37.746 20.3183 37.7412 20.6734 37.7316 21.2157H37.0978C37.0341 19.4225 35.9686 18.467 34.607 18.2411C34.4397 18.2201 34.3904 18.2056 33.7677 18.2217H28.587C27.3017 18.2217 26.3828 17.978 25.8334 17.4922C25.2839 17.0064 24.8953 16.2155 24.6676 15.1228C24.4399 16.2155 24.0592 16.9983 23.5241 17.4696C22.9603 17.9715 22.035 18.2217 20.7482 18.2217H15.5675C14.9448 18.2217 14.8461 18.2314 14.6773 18.2524C13.3045 18.438 12.2072 19.6517 12.2342 21.2157H11.6036H11.6052Z" fill="#F4D315"/>
<path d="M37.2761 30.5588V30.8187C36.2489 32.4875 35.0911 33.8594 32.9427 35.3491C30.7943 36.8389 27.832 37.8944 24.6691 37.8944C23.1976 37.8944 21.8136 37.6507 20.659 37.365C19.5028 37.0777 18.3306 36.5613 17.1394 35.8124C15.9481 35.0651 14.9034 34.2177 14.0036 33.2687C13.1053 32.3197 12.4524 31.4836 12.0479 30.7573L12.0781 30.5136L12.6562 29.9277H12.8633C14.0004 31.0656 19.4932 33.4947 24.8746 33.4947C30.256 33.4947 35.7424 30.6912 36.5913 29.9439L36.8143 29.9277L37.2777 30.5588H37.2761Z" fill="#F4D315"/>
<path d="M32.1212 25.8688C32.1212 26.5208 31.8886 27.0744 31.4236 27.5312C30.9586 27.9879 30.4091 28.2155 29.7753 28.2155C29.1414 28.2155 28.5792 27.9879 28.1126 27.5312C27.6476 27.0744 27.415 26.5208 27.415 25.8688C27.415 25.2167 27.646 24.6599 28.1062 24.1983C28.5665 23.7367 29.1223 23.5059 29.7753 23.5059C30.4282 23.5059 30.984 23.7367 31.4379 24.1983C31.8934 24.6599 32.1212 25.2167 32.1212 25.8688Z" fill="#F4D315"/>
<path d="M17.2415 23.6094C18.7465 24.4809 20.3678 25.0878 21.9668 25.3525C21.8696 25.6769 21.8696 26.8196 22.4939 27.625L22.0337 28.0043C21.5081 27.7509 20.7659 27.3264 19.8056 26.7325C18.8453 26.1385 18.0761 25.6075 17.4979 25.1411L17.0122 23.8612L17.2415 23.6094Z" fill="#F4D315"/>
<path d="M68.3112 22.5305C68.8304 22.0091 69.4356 21.596 70.13 21.2909C70.8243 20.9859 71.5681 20.8342 72.3628 20.8342C73.1575 20.8342 73.9012 20.9891 74.6195 21.299C75.3393 21.6073 75.962 22.0511 76.4876 22.6273L78.3939 19.4493C77.5578 18.7118 76.6214 18.1517 75.5846 17.7659C74.5478 17.3802 73.4728 17.1865 72.3612 17.1865C71.5091 17.1865 70.6874 17.2995 69.8974 17.5238C69.1075 17.7482 68.367 18.0662 67.6774 18.4777C66.9878 18.8877 66.3587 19.3816 65.7901 19.9578C65.2216 20.534 64.7343 21.1715 64.3297 21.8703C63.9236 22.5692 63.6099 23.3213 63.3885 24.1251C63.1671 24.9305 63.0557 25.7649 63.0557 26.6284C63.0557 27.4919 63.1671 28.3263 63.3885 29.1269C63.6099 29.9274 63.9236 30.6779 64.3297 31.3768C64.7358 32.0756 65.2216 32.7132 65.7901 33.2894C66.3587 33.8656 66.9878 34.3594 67.6774 34.771C68.367 35.181 69.1075 35.4989 69.8974 35.7249C70.6874 35.9492 71.5091 36.0606 72.3612 36.0606C73.4728 36.0606 74.5478 35.8653 75.5846 35.4763C76.6214 35.0874 77.5578 34.5273 78.3939 33.7994L76.4876 30.6214C75.9604 31.1976 75.3377 31.6399 74.6195 31.9498C73.8996 32.258 73.1479 32.413 72.3628 32.413C71.5776 32.413 70.8243 32.2613 70.13 31.9562C69.4356 31.6512 68.8304 31.2364 68.3112 30.7102C67.792 30.1857 67.3827 29.5739 67.0817 28.8735C66.7807 28.1746 66.631 27.4273 66.631 26.63C66.631 25.8327 66.7807 25.0822 67.0817 24.3753C67.3827 23.6667 67.792 23.0534 68.3112 22.5321V22.5305Z" fill="#F4D315"/>
<path d="M90.6201 23.5094C90.0006 22.8783 89.276 22.3909 88.4446 22.0471C87.6133 21.7033 86.7199 21.5322 85.7675 21.5322C84.8151 21.5322 83.9344 21.7146 83.1031 22.0794C82.2718 22.4441 81.5439 22.9461 80.9212 23.5852C80.2985 24.2244 79.8064 24.9846 79.4481 25.8658C79.0882 26.747 78.9082 27.7041 78.9082 28.7387C78.9082 29.7733 79.0882 30.703 79.4481 31.5794C79.808 32.4558 80.2985 33.2143 80.9212 33.8551C81.5439 34.4942 82.2718 34.9994 83.1031 35.3674C83.9344 35.7354 84.8231 35.9194 85.7675 35.9194C86.7119 35.9194 87.6133 35.7354 88.4446 35.3674C89.276 34.9994 90.0022 34.4942 90.6201 33.8551C91.2396 33.2143 91.7286 32.4574 92.0869 31.5794C92.4468 30.703 92.6268 29.7555 92.6268 28.7387C92.6268 27.6541 92.4468 26.6696 92.0869 25.7851C91.727 24.899 91.2381 24.1404 90.6201 23.5094ZM88.9081 30.251C88.7281 30.7078 88.4829 31.0984 88.1739 31.4196C87.8649 31.7424 87.5034 31.9909 87.0894 32.1701C86.6753 32.3476 86.2341 32.4364 85.7659 32.4364C85.2977 32.4364 84.8565 32.3412 84.4425 32.1507C84.0284 31.9603 83.6685 31.6988 83.3643 31.3679C83.0585 31.0371 82.818 30.6481 82.6428 30.1994C82.4676 29.7507 82.3801 29.2633 82.3801 28.7371C82.3801 28.1787 82.4676 27.6719 82.6428 27.2183C82.818 26.7648 83.0585 26.3742 83.3643 26.0498C83.6701 25.7238 84.0284 25.4736 84.4425 25.2993C84.8565 25.125 85.2977 25.0378 85.7659 25.0378C86.2341 25.0378 86.6753 25.125 87.0894 25.2993C87.5034 25.472 87.8649 25.7222 88.1739 26.0498C88.4829 26.3758 88.7281 26.7648 88.9081 27.2183C89.0881 27.6703 89.1772 28.1771 89.1772 28.7371C89.1772 29.2972 89.0881 29.7927 88.9081 30.2494V30.251Z" fill="#F4D315"/>
<path d="M104.052 22.9937C103.869 22.7225 103.643 22.4933 103.376 22.3077C103.108 22.1221 102.821 21.972 102.517 21.8574C102.211 21.7428 101.898 21.6605 101.576 21.6088C101.254 21.5588 100.942 21.533 100.641 21.533C99.6966 21.533 98.808 21.7154 97.9766 22.0801C97.1453 22.4449 96.4175 22.9485 95.7948 23.5924C95.1721 24.2364 94.68 24.9999 94.3216 25.8795C93.9617 26.7607 93.7817 27.7146 93.7817 28.7395C93.7817 29.7644 93.9617 30.7295 94.3216 31.6059C94.6816 32.4823 95.1721 33.2409 95.7948 33.8817C96.4175 34.5208 97.1453 35.0212 97.9766 35.3811C98.808 35.741 99.6966 35.9202 100.641 35.9202C101.076 35.9202 101.504 35.8653 101.926 35.7555C102.348 35.6458 102.761 35.4957 103.162 35.3052C103.563 35.1148 103.946 34.8904 104.309 34.6322C104.672 34.3723 105.017 34.0963 105.344 33.7994L106.674 35.6684H107.502V16.6426H104.054V22.9969L104.052 22.9937ZM103.782 30.1178C103.602 30.5633 103.356 30.9571 103.047 31.2993C102.738 31.6431 102.377 31.9174 101.963 32.1256C101.549 32.3322 101.108 32.4371 100.639 32.4371C100.171 32.4371 99.7301 32.3403 99.316 32.145C98.9019 31.9497 98.5436 31.6834 98.2378 31.3445C97.932 31.0055 97.6916 30.6117 97.5164 30.163C97.3412 29.7143 97.2536 29.2398 97.2536 28.7395C97.2536 28.1633 97.3412 27.6468 97.5164 27.1884C97.6916 26.7317 97.932 26.3443 98.2378 26.0264C98.5436 25.7084 98.9019 25.4647 99.316 25.2952C99.7301 25.1257 100.171 25.0418 100.639 25.0418C101.108 25.0418 101.549 25.1451 101.963 25.3533C102.377 25.5599 102.738 25.8359 103.047 26.1797C103.356 26.5235 103.602 26.9173 103.782 27.3611C103.962 27.8066 104.051 28.265 104.051 28.7395C104.051 29.214 103.962 29.674 103.782 30.1194V30.1178Z" fill="#F4D315"/>
<path d="M171.531 22.9425C171.217 22.6245 170.757 22.4664 170.15 22.4664C169.543 22.4664 168.836 22.6875 168.086 23.1297C167.336 23.5736 166.571 24.3128 165.792 25.3522C165.014 26.3916 164.311 27.7377 163.685 29.3936C163.76 28.5463 163.856 27.8345 163.97 27.2583C164.084 26.6805 164.236 26.0075 164.426 25.2376C164.711 24.1594 164.853 23.467 164.853 23.1588C164.853 22.8892 164.776 22.7068 164.625 22.61C164.474 22.5132 164.208 22.4664 163.827 22.4664C163.125 22.4664 162.579 22.5971 162.19 22.8553C161.8 23.1152 161.521 23.5235 161.351 24.082C161.021 25.1391 160.776 26.2254 160.601 27.3374C159.75 27.5278 158.994 27.6473 158.333 27.6892C158.181 26.2076 157.664 24.9616 156.78 23.9512C155.898 22.9409 154.735 22.4357 153.292 22.4357C152.115 22.4357 151.043 22.7585 150.074 23.4025C149.105 24.0481 148.346 24.9422 147.795 26.0865C147.591 26.5094 147.438 26.9613 147.31 27.4278C146.643 27.5617 146.03 27.6537 145.488 27.6876C145.337 26.206 144.82 24.96 143.936 23.9496C143.053 22.9393 141.889 22.4341 140.446 22.4341C139.269 22.4341 138.198 22.7569 137.228 23.4009C136.259 24.0465 135.5 24.9406 134.949 26.0849C134.398 27.2309 134.122 28.5334 134.122 29.9956C134.122 30.3653 134.156 30.7236 134.205 31.0754C133.792 31.4999 133.412 31.8566 133.068 32.131C132.442 32.6313 131.72 32.8815 130.903 32.8815C129.897 32.8815 129.161 32.4764 128.696 31.6694C128.231 30.8624 127.999 29.4566 127.999 27.4552C127.999 27.0356 128.01 26.4836 128.034 25.8057C128.206 25.604 128.374 25.4038 128.543 25.2037H131.529C133.675 25.2037 134.748 24.5403 134.748 23.212C134.748 22.8473 134.681 22.5971 134.549 22.4615C134.417 22.3275 134.197 22.2598 133.894 22.2598H130.994C131.87 21.1832 132.512 20.352 132.717 19.9921C132.738 19.955 132.743 19.9308 132.759 19.8985C133.848 18.257 134.406 16.4494 134.406 14.4674C134.406 13.3892 134.178 12.4951 133.722 11.7833C133.267 11.0715 132.641 10.7148 131.843 10.7148C130.76 10.7148 129.75 11.2346 128.811 12.274C127.871 13.3118 127.069 14.7079 126.404 16.4591C125.74 18.2102 125.247 20.1438 124.923 22.2614H123.3C122.447 22.2614 122.018 22.8004 122.018 23.877C122.018 24.3386 122.119 24.6743 122.318 24.8857C122.517 25.0988 122.902 25.2037 123.471 25.2037H124.581C124.567 25.4248 124.559 25.6427 124.547 25.8622C122.984 27.4407 118.838 31.2836 118.838 31.2836C118.838 31.2836 118.357 31.721 118.086 31.8937C117.814 32.0664 117.524 32.2004 117.215 32.294C116.906 32.3876 116.584 32.4344 116.25 32.4344C116.116 32.4344 115.982 32.4279 115.849 32.415C115.715 32.4021 115.581 32.3747 115.447 32.3327L121.869 24.4919C121.55 24.0352 121.184 23.622 120.765 23.254C120.346 22.886 119.897 22.5729 119.416 22.3195C118.935 22.0661 118.427 21.8708 117.892 21.7352C117.357 21.5996 116.809 21.5318 116.248 21.5318C115.304 21.5318 114.415 21.7062 113.584 22.0532C112.753 22.4018 112.025 22.8876 111.402 23.5154C110.779 24.1433 110.287 24.9003 109.929 25.7912C109.569 26.6805 109.389 27.665 109.389 28.74C109.389 29.8149 109.569 30.7542 109.929 31.6322C110.289 32.5086 110.779 33.2656 111.402 33.8999C112.025 34.5358 112.753 35.0313 113.584 35.3864C114.415 35.7415 115.304 35.9206 116.248 35.9206C116.809 35.9206 117.354 35.8545 117.886 35.7237C118.416 35.5914 118.922 35.3993 119.403 35.1443C119.884 34.8893 120.332 34.581 120.746 34.2162C121.149 33.8612 121.506 33.4593 121.818 33.0154H121.819C121.819 33.0154 123.019 31.6403 124.6 29.8133C125.043 33.9758 126.944 36.0594 130.306 36.0594C131.56 36.0594 132.67 35.7318 133.638 35.0781C134.183 34.7101 134.7 34.2776 135.196 33.795C135.567 34.3567 136.027 34.836 136.584 35.2218C137.392 35.7802 138.365 36.0594 139.503 36.0594C140.851 36.0594 142.056 35.5736 143.12 34.602C144.183 33.6304 144.894 32.3359 145.256 30.7203C145.858 30.6945 146.433 30.6299 146.99 30.538C147.049 31.4111 147.243 32.2343 147.591 33.0009C148.008 33.9241 148.62 34.6649 149.427 35.2234C150.234 35.7818 151.207 36.061 152.346 36.061C153.694 36.061 154.899 35.5752 155.963 34.6036C157.025 33.632 157.737 32.3376 158.099 30.7219C158.877 30.6897 159.613 30.5944 160.319 30.4492C160.311 30.7042 160.292 30.956 160.292 31.2142C160.292 32.9073 160.438 34.1388 160.733 34.9086C161.027 35.6785 161.534 36.0627 162.257 36.0627C162.845 36.0627 163.276 35.9029 163.552 35.5865C163.827 35.2686 164.069 34.6569 164.278 33.753C164.563 32.5797 164.937 31.4628 165.402 30.4056C165.867 29.3468 166.323 28.4962 166.769 27.8506C167.215 27.2067 167.562 26.8839 167.809 26.8839C168.017 26.8839 168.122 27.0388 168.122 27.3455C168.122 27.7699 168.008 28.7496 167.78 30.2894C167.514 32.0599 167.382 33.3302 167.382 34.0984C167.382 34.7537 167.524 35.2444 167.809 35.5704C168.094 35.898 168.549 36.061 169.175 36.061C169.839 36.061 170.319 35.9013 170.613 35.5849C170.908 35.267 171.054 34.7424 171.054 34.0113C171.054 32.7217 171.112 31.5532 171.225 30.5041C171.339 29.4566 171.491 28.3445 171.68 27.1712C171.889 25.7863 171.992 24.8422 171.992 24.3434C171.992 23.7285 171.836 23.2604 171.523 22.9425H171.531ZM129.128 17.5743C129.44 16.2944 129.773 15.2954 130.125 14.5723C130.477 13.8508 130.794 13.4909 131.079 13.4909C131.496 13.4909 131.706 14.059 131.706 15.1937C131.706 16.1944 131.426 17.3048 130.865 18.5266C130.481 19.3626 129.956 20.139 129.309 20.8637C129.187 20.996 129.074 21.1154 128.956 21.2429C128.76 21.4431 128.562 21.6416 128.344 21.8321C128.553 20.2745 128.814 18.8558 129.128 17.5743ZM113.219 30.5428C113.152 30.425 113.098 30.2894 113.057 30.1361C113.015 29.9827 112.98 29.8246 112.95 29.6599C112.92 29.4953 112.899 29.3307 112.888 29.1709C112.875 29.0111 112.869 28.8658 112.869 28.7383C112.869 28.1718 112.957 27.6602 113.132 27.2067C113.307 26.7531 113.547 26.3658 113.853 26.043C114.159 25.7218 114.517 25.4732 114.931 25.3005C115.345 25.1262 115.787 25.0391 116.255 25.0391C116.422 25.0391 116.583 25.0471 116.737 25.0649C116.892 25.0826 117.05 25.1214 117.207 25.1795L113.219 30.5428ZM141.316 32.2504C140.87 32.7507 140.343 33.0009 139.736 33.0009C139.185 33.0009 138.706 32.7217 138.298 32.1632C137.889 31.6048 137.685 30.7978 137.685 29.739C137.685 28.3929 137.936 27.3487 138.44 26.6079C138.943 25.867 139.574 25.4958 140.333 25.4958H140.475C140.418 25.8041 140.391 26.1124 140.391 26.419C140.391 27.1502 140.547 27.8442 140.86 28.4979C141.174 29.1531 141.625 29.6809 142.214 30.086C142.061 31.0286 141.763 31.7501 141.317 32.2504H141.316ZM154.16 32.2504C153.714 32.7507 153.187 33.0009 152.58 33.0009C152.029 33.0009 151.55 32.7217 151.142 32.1632C150.733 31.6048 150.529 30.7978 150.529 29.739C150.529 28.3929 150.781 27.3487 151.284 26.6079C151.787 25.867 152.418 25.4958 153.177 25.4958H153.319C153.262 25.8041 153.235 26.1124 153.235 26.419C153.235 27.1502 153.391 27.8442 153.705 28.4979C154.018 29.1531 154.469 29.6809 155.058 30.086C154.905 31.0286 154.608 31.7501 154.162 32.2504H154.16Z" fill="#F4D315"/>
<path d="M168.38 4.48828C168.985 4.48828 169.574 4.64484 170.148 4.95634C170.721 5.26784 171.172 5.71653 171.503 6.3008C171.834 6.88507 172 7.50323 172 8.15851C172 8.81379 171.839 9.42388 171.516 9.9904C171.192 10.5569 170.751 11.0056 170.189 11.3349C169.629 11.6641 169.025 11.8287 168.378 11.8287C167.732 11.8287 167.13 11.6641 166.568 11.3349C166.007 11.0056 165.564 10.5585 165.241 9.9904C164.918 9.42388 164.757 8.81218 164.757 8.15851C164.757 7.50484 164.921 6.88022 165.251 6.30403C165.58 5.72783 166.028 5.28237 166.593 4.96602C167.158 4.64807 167.754 4.4899 168.375 4.4899L168.38 4.48828ZM168.38 5.05641C167.853 5.05641 167.353 5.19037 166.875 5.45829C166.399 5.72622 166.02 6.10389 165.741 6.59132C165.461 7.07713 165.322 7.60007 165.322 8.1569C165.322 8.71372 165.459 9.22698 165.732 9.70633C166.004 10.1857 166.378 10.565 166.851 10.841C167.324 11.117 167.834 11.2558 168.38 11.2558C168.926 11.2558 169.433 11.117 169.907 10.841C170.382 10.5634 170.756 10.1841 171.03 9.70149C171.302 9.21891 171.439 8.70404 171.439 8.1569C171.439 7.60975 171.299 7.08359 171.017 6.58971C170.735 6.09421 170.355 5.71653 169.872 5.45184C169.391 5.18876 168.893 5.05641 168.38 5.05641ZM166.706 9.9791V9.77251L166.776 9.77735C166.899 9.77735 166.985 9.76766 167.034 9.74991C167.084 9.73216 167.117 9.70149 167.133 9.66275C167.149 9.6224 167.158 9.54493 167.158 9.43195V6.58809C167.158 6.44767 167.149 6.35245 167.131 6.30564C167.114 6.25884 167.084 6.22656 167.042 6.21042C167.001 6.19428 166.923 6.18459 166.807 6.18459H166.708V5.96347H168.476C168.837 5.96347 169.113 6.00867 169.305 6.09744C169.498 6.18621 169.633 6.31694 169.715 6.48964C169.796 6.66233 169.836 6.82535 169.836 6.98029C169.836 7.11748 169.802 7.2579 169.737 7.39993C169.67 7.54196 169.57 7.66624 169.434 7.76954C169.299 7.87445 169.093 7.95676 168.818 8.02132C168.934 8.06167 169.019 8.10041 169.071 8.13753C169.124 8.17465 169.187 8.2376 169.262 8.32637C169.337 8.41514 169.393 8.49261 169.431 8.56039C169.469 8.62657 169.533 8.75569 169.622 8.94291C169.729 9.17371 169.818 9.35287 169.89 9.47876C169.963 9.60465 170.024 9.68535 170.071 9.72086C170.119 9.75637 170.189 9.77412 170.283 9.77412V9.98071H169.692C169.514 9.98071 169.39 9.95166 169.32 9.89194C169.25 9.83384 169.106 9.55462 168.888 9.05428C168.762 8.76214 168.67 8.56201 168.609 8.45548C168.549 8.34896 168.487 8.2731 168.418 8.22953C168.35 8.18595 168.246 8.16335 168.108 8.16335C168.065 8.16335 167.985 8.16819 167.869 8.17788V9.3803C167.869 9.51749 167.88 9.60949 167.904 9.6563C167.928 9.7031 167.96 9.73216 168.001 9.74507C168.042 9.75637 168.146 9.76605 168.311 9.77251V9.9791H166.708H166.706ZM167.869 7.89059C167.985 7.90027 168.073 7.90511 168.132 7.90511C168.539 7.90511 168.804 7.81311 168.926 7.63073C169.049 7.44835 169.109 7.24337 169.109 7.01903C169.109 6.76402 169.038 6.56388 168.896 6.41701C168.754 6.27175 168.563 6.1975 168.324 6.1975C168.265 6.1975 168.192 6.20235 168.108 6.21042C168.023 6.21849 167.971 6.22978 167.948 6.2427C167.926 6.25561 167.909 6.28143 167.891 6.31855C167.874 6.35568 167.866 6.39764 167.866 6.44445V7.88897L167.869 7.89059Z" fill="#F4D315"/>
<path d="M66.9938 42.039L66.4523 42.5619C66.0844 42.1681 65.6703 41.9712 65.2101 41.9712C64.8215 41.9712 64.495 42.1051 64.229 42.3747C63.9631 42.6442 63.8309 42.9751 63.8309 43.3689C63.8309 43.6433 63.8898 43.887 64.0077 44.1C64.1255 44.3131 64.2911 44.4793 64.5077 44.602C64.7227 44.723 64.9616 44.7844 65.226 44.7844C65.4505 44.7844 65.656 44.7424 65.8423 44.6569C66.0287 44.5713 66.2325 44.4164 66.4555 44.1936L66.9794 44.7489C66.6784 45.0458 66.395 45.2524 66.129 45.367C65.863 45.4816 65.5572 45.5397 65.2148 45.5397C64.5826 45.5397 64.0666 45.3364 63.6637 44.9312C63.2607 44.5245 63.0601 44.0048 63.0601 43.3705C63.0601 42.9605 63.1524 42.5942 63.3356 42.2762C63.5187 41.9566 63.7815 41.7 64.1223 41.5063C64.4631 41.3127 64.8326 41.2158 65.226 41.2158C65.562 41.2158 65.8837 41.2885 66.1943 41.4305C66.5048 41.5741 66.7724 41.7775 66.9969 42.0422L66.9938 42.039Z" fill="#F4D315"/>
<path d="M68.1562 41.2106H68.9048V42.6955C69.0529 42.5664 69.201 42.4695 69.3491 42.405C69.4972 42.3404 69.6501 42.3081 69.803 42.3081C70.1008 42.3081 70.3524 42.413 70.5579 42.6212C70.7331 42.802 70.8207 43.0683 70.8207 43.4185V45.4312H70.0769V44.0948C70.0769 43.7413 70.061 43.5025 70.0275 43.3782C69.9941 43.2539 69.9384 43.1603 69.8571 43.099C69.7759 43.0376 69.6788 43.007 69.5593 43.007C69.4064 43.007 69.2758 43.0586 69.166 43.1603C69.0561 43.262 68.9796 43.4024 68.9382 43.5799C68.9159 43.6719 68.9048 43.8801 68.9048 44.2078V45.4312H68.1562V41.209V41.2106Z" fill="#F4D315"/>
<path d="M74.334 42.3877H75.0889V45.4349H74.334V45.1121C74.1859 45.2541 74.0393 45.3558 73.8912 45.4188C73.7431 45.4817 73.5823 45.5124 73.4103 45.5124C73.0217 45.5124 72.6856 45.359 72.4037 45.054C72.1219 44.749 71.9785 44.3697 71.9785 43.9161C71.9785 43.4626 72.1155 43.0607 72.3894 42.7589C72.6633 42.4587 72.9962 42.3086 73.388 42.3086C73.5679 42.3086 73.7367 42.3425 73.896 42.4119C74.0553 42.4813 74.2002 42.5846 74.3356 42.7234V42.3877H74.334ZM73.5409 43.0139C73.3083 43.0139 73.114 43.0978 72.9596 43.2641C72.8051 43.4303 72.7286 43.645 72.7286 43.9064C72.7286 44.1679 72.8067 44.3858 72.9643 44.5569C73.122 44.7264 73.3147 44.8119 73.544 44.8119C73.7734 44.8119 73.9772 44.728 74.1333 44.5617C74.2894 44.3939 74.3674 44.176 74.3674 43.9048C74.3674 43.6337 74.2894 43.4255 74.1333 43.2608C73.9772 43.0962 73.7797 43.0139 73.5409 43.0139Z" fill="#F4D315"/>
<path d="M76.4155 42.3877H77.1704V42.6992C77.3408 42.5523 77.4969 42.4506 77.6355 42.3941C77.774 42.336 77.9157 42.3086 78.0607 42.3086C78.3585 42.3086 78.6117 42.4135 78.8203 42.6249C78.9955 42.8041 79.0831 43.0688 79.0831 43.4206V45.4333H78.3378V44.0985C78.3378 43.7354 78.3219 43.4933 78.29 43.3738C78.2582 43.2544 78.2024 43.164 78.1212 43.1011C78.04 43.0381 77.9428 43.0075 77.825 43.0075C77.6721 43.0075 77.5415 43.0591 77.4316 43.1624C77.3217 43.2657 77.2469 43.4093 77.2039 43.5917C77.1816 43.6869 77.1704 43.8935 77.1704 44.2099V45.4317H76.4155V42.3845V42.3877Z" fill="#F4D315"/>
<path d="M82.5996 42.387H83.3513V44.9969C83.3513 45.5117 83.2494 45.891 83.0439 46.1331C82.77 46.4624 82.3559 46.6254 81.8033 46.6254C81.5087 46.6254 81.2602 46.5883 81.0596 46.514C80.8589 46.4398 80.6901 46.33 80.5515 46.1848C80.413 46.0395 80.311 45.8636 80.2441 45.657H81.0755C81.1487 45.7425 81.2443 45.8071 81.3605 45.8523C81.4768 45.8959 81.6138 45.9185 81.773 45.9185C81.9753 45.9185 82.1393 45.8862 82.262 45.8232C82.3846 45.7603 82.4722 45.678 82.5231 45.5763C82.5741 45.4746 82.5996 45.3019 82.5996 45.055C82.4674 45.1889 82.3273 45.2858 82.1823 45.3455C82.0374 45.4052 81.8718 45.4343 81.687 45.4343C81.2841 45.4343 80.9433 45.2874 80.6646 44.992C80.3859 44.6967 80.2473 44.3238 80.2473 43.8719C80.2473 43.3877 80.3954 43.0004 80.6901 42.7066C80.9576 42.4419 81.2761 42.3096 81.6456 42.3096C81.8192 42.3096 81.9817 42.3418 82.1361 42.4064C82.2906 42.471 82.4435 42.5775 82.5996 42.7244V42.3887V42.387ZM81.8176 43.023C81.5803 43.023 81.3844 43.1037 81.2284 43.2651C81.0739 43.4265 80.9958 43.6298 80.9958 43.8735C80.9958 44.1172 81.0755 44.3351 81.2331 44.4981C81.3908 44.6612 81.5899 44.7419 81.8304 44.7419C82.0708 44.7419 82.2572 44.6628 82.4085 44.5046C82.5598 44.3464 82.6362 44.1382 82.6362 43.88C82.6362 43.6217 82.5598 43.42 82.4069 43.2618C82.254 43.1037 82.0565 43.0246 81.816 43.0246L81.8176 43.023Z" fill="#F4D315"/>
<path d="M87.6913 44.1324H85.2674C85.3024 44.3487 85.3964 44.5214 85.5477 44.6489C85.6989 44.7764 85.8932 44.841 86.129 44.841C86.4108 44.841 86.6529 44.7409 86.8552 44.5407L87.4906 44.8426C87.333 45.0701 87.1418 45.238 86.9221 45.3477C86.7023 45.4575 86.4379 45.5108 86.1353 45.5108C85.6639 45.5108 85.2801 45.3607 84.9839 45.0588C84.6877 44.757 84.5396 44.3793 84.5396 43.9258C84.5396 43.4723 84.6877 43.0752 84.9823 42.7686C85.2785 42.4619 85.648 42.3086 86.0939 42.3086C86.5669 42.3086 86.9523 42.4619 87.2485 42.7686C87.5448 43.0752 87.6929 43.482 87.6929 43.9855L87.6897 44.1308L87.6913 44.1324ZM86.938 43.5304C86.8886 43.3609 86.7899 43.2221 86.6434 43.1156C86.4968 43.0091 86.3264 42.9558 86.1321 42.9558C85.9219 42.9558 85.7372 43.0155 85.5779 43.135C85.4792 43.2092 85.3852 43.3416 85.3008 43.5304H86.9364H86.938Z" fill="#F4D315"/>
<path d="M91.1087 41.2637H91.8636V42.387H92.3111V43.0455H91.8636V45.4342H91.1087V43.0455H90.7217V42.387H91.1087V41.2637Z" fill="#F4D315"/>
<path d="M93.2827 41.2106H94.0312V42.6955C94.1793 42.5664 94.3275 42.4695 94.4756 42.405C94.6237 42.3404 94.7766 42.3081 94.9295 42.3081C95.2273 42.3081 95.4789 42.413 95.6843 42.6212C95.8595 42.802 95.9471 43.0683 95.9471 43.4185V45.4312H95.2034V44.0948C95.2034 43.7413 95.1875 43.5025 95.154 43.3782C95.1206 43.2539 95.0648 43.1603 94.9836 43.099C94.9024 43.0376 94.8052 43.007 94.6858 43.007C94.5329 43.007 94.4023 43.0586 94.2924 43.1603C94.1825 43.262 94.1061 43.4024 94.0647 43.5799C94.0424 43.6719 94.0312 43.8801 94.0312 44.2078V45.4312H93.2827V41.209V41.2106Z" fill="#F4D315"/>
<path d="M100.253 44.1324H97.8294C97.8644 44.3487 97.9584 44.5214 98.1097 44.6489C98.261 44.7764 98.4553 44.841 98.691 44.841C98.9729 44.841 99.2149 44.7409 99.4172 44.5407L100.053 44.8426C99.895 45.0701 99.7038 45.238 99.4841 45.3477C99.2643 45.4575 98.9999 45.5108 98.6973 45.5108C98.2259 45.5108 97.8421 45.3607 97.5459 45.0588C97.2497 44.757 97.1016 44.3793 97.1016 43.9258C97.1016 43.4723 97.2497 43.0752 97.5443 42.7686C97.8405 42.4619 98.21 42.3086 98.6559 42.3086C99.1289 42.3086 99.5143 42.4619 99.8106 42.7686C100.107 43.0752 100.255 43.482 100.255 43.9855L100.252 44.1308L100.253 44.1324ZM99.4984 43.5304C99.449 43.3609 99.3503 43.2221 99.2038 43.1156C99.0573 43.0091 98.8869 42.9558 98.6926 42.9558C98.4823 42.9558 98.2976 43.0155 98.1383 43.135C98.0396 43.2092 97.9456 43.3416 97.8612 43.5304H99.4968H99.4984Z" fill="#F4D315"/>
<path d="M103.246 42.3867H103.985L104.59 44.1201L105.24 42.3867H105.692L106.331 44.1008L106.936 42.3867H107.68L106.583 45.4339H106.105L105.463 43.6973L104.802 45.4339H104.329L103.246 42.3867Z" fill="#F4D315"/>
<path d="M110.083 42.3086C110.367 42.3086 110.634 42.3812 110.883 42.5249C111.133 42.6685 111.327 42.8638 111.467 43.1107C111.607 43.3577 111.677 43.624 111.677 43.9081C111.677 44.1921 111.607 44.4649 111.465 44.7151C111.325 44.9652 111.133 45.1605 110.889 45.3009C110.645 45.4414 110.378 45.5124 110.085 45.5124C109.653 45.5124 109.285 45.3574 108.981 45.0459C108.677 44.7344 108.524 44.3568 108.524 43.9129C108.524 43.4368 108.696 43.0397 109.04 42.7234C109.343 42.4474 109.69 42.3086 110.081 42.3086H110.083ZM110.096 43.0284C109.862 43.0284 109.666 43.1107 109.51 43.277C109.354 43.4416 109.276 43.6531 109.276 43.9113C109.276 44.1695 109.352 44.3906 109.507 44.5553C109.661 44.7199 109.855 44.8022 110.093 44.8022C110.33 44.8022 110.526 44.7199 110.682 44.5537C110.84 44.3874 110.918 44.1744 110.918 43.9129C110.918 43.6514 110.841 43.4384 110.687 43.2754C110.532 43.1124 110.336 43.03 110.096 43.03V43.0284Z" fill="#F4D315"/>
<path d="M112.682 42.387H113.329V42.7712C113.399 42.6195 113.491 42.5049 113.607 42.4274C113.724 42.3499 113.851 42.3096 113.988 42.3096C114.085 42.3096 114.187 42.3354 114.295 42.3887L114.061 43.0472C113.972 43.002 113.9 42.9794 113.843 42.9794C113.727 42.9794 113.63 43.052 113.549 43.1973C113.467 43.3425 113.429 43.6282 113.429 44.0543L113.432 44.2028V45.4343H112.684V42.387H112.682Z" fill="#F4D315"/>
<path d="M115.152 41.2109H115.907V45.4332H115.152V41.2109Z" fill="#F4D315"/>
<path d="M119.376 41.2106H120.131V45.4328H119.376V45.11C119.228 45.252 119.081 45.3537 118.933 45.4167C118.785 45.4796 118.624 45.5103 118.452 45.5103C118.064 45.5103 117.728 45.357 117.446 45.0519C117.162 44.7469 117.021 44.3676 117.021 43.914C117.021 43.4605 117.157 43.0586 117.431 42.7568C117.705 42.455 118.038 42.3065 118.43 42.3065C118.61 42.3065 118.779 42.3404 118.938 42.4098C119.096 42.4792 119.242 42.5825 119.378 42.7213V41.209L119.376 41.2106ZM118.583 43.0134C118.35 43.0134 118.156 43.0974 118.002 43.2636C117.847 43.4315 117.771 43.6445 117.771 43.906C117.771 44.1674 117.849 44.3853 118.006 44.5564C118.164 44.7259 118.357 44.8114 118.586 44.8114C118.815 44.8114 119.019 44.7275 119.175 44.5613C119.331 44.3934 119.409 44.1755 119.409 43.9044C119.409 43.6332 119.331 43.425 119.175 43.2604C119.019 43.0957 118.822 43.0134 118.583 43.0134Z" fill="#F4D315"/>
<path d="M121.822 44.6582L122.36 44.9326L121.677 46.114L121.301 45.9316L121.82 44.6582H121.822Z" fill="#F4D315"/>
<path d="M126.216 42.6225H125.784L125.633 41.2119H126.369L126.217 42.6225H126.216Z" fill="#F4D315"/>
<path d="M130.513 43.0039L129.885 43.3541C129.768 43.2298 129.651 43.1427 129.535 43.0943C129.42 43.0459 129.285 43.0216 129.13 43.0216C128.849 43.0216 128.621 43.1072 128.446 43.2767C128.27 43.4477 128.184 43.6656 128.184 43.9319C128.184 44.1982 128.269 44.4016 128.436 44.5662C128.603 44.7292 128.825 44.8116 129.097 44.8116C129.435 44.8116 129.697 44.6954 129.885 44.4613L130.481 44.8745C130.159 45.299 129.704 45.512 129.116 45.512C128.587 45.512 128.173 45.3539 127.874 45.0359C127.575 44.718 127.425 44.3467 127.425 43.9206C127.425 43.6253 127.498 43.3541 127.643 43.1056C127.788 42.857 127.992 42.6617 128.253 42.5197C128.514 42.3777 128.806 42.3066 129.127 42.3066C129.425 42.3066 129.694 42.3664 129.932 42.4874C130.169 42.6085 130.363 42.7795 130.514 43.0007L130.513 43.0039Z" fill="#F4D315"/>
<path d="M133.977 42.3877H134.731V45.4349H133.977V45.1121C133.828 45.2541 133.682 45.3558 133.534 45.4188C133.386 45.4817 133.225 45.5124 133.053 45.5124C132.664 45.5124 132.328 45.359 132.046 45.054C131.764 44.749 131.621 44.3697 131.621 43.9161C131.621 43.4626 131.758 43.0607 132.032 42.7589C132.306 42.4587 132.639 42.3086 133.031 42.3086C133.21 42.3086 133.379 42.3425 133.539 42.4119C133.696 42.4813 133.843 42.5846 133.978 42.7234V42.3877H133.977ZM133.183 43.0139C132.951 43.0139 132.757 43.0978 132.602 43.2641C132.448 43.4303 132.371 43.645 132.371 43.9064C132.371 44.1679 132.449 44.3858 132.607 44.5569C132.765 44.7264 132.957 44.8119 133.187 44.8119C133.416 44.8119 133.62 44.728 133.776 44.5617C133.932 44.3939 134.01 44.176 134.01 43.9048C134.01 43.6337 133.932 43.4255 133.776 43.2608C133.62 43.0962 133.422 43.0139 133.183 43.0139Z" fill="#F4D315"/>
<path d="M136.057 42.3874H136.82V43.8545C136.82 44.1402 136.839 44.3387 136.877 44.45C136.915 44.5614 136.979 44.647 137.063 44.7083C137.149 44.7696 137.254 44.8003 137.38 44.8003C137.506 44.8003 137.613 44.7696 137.7 44.7099C137.788 44.6486 137.853 44.5598 137.896 44.442C137.928 44.3548 137.942 44.166 137.942 43.8787V42.3857H138.697V43.6769C138.697 44.2096 138.656 44.5727 138.573 44.7696C138.471 45.0085 138.323 45.1925 138.126 45.32C137.928 45.4475 137.678 45.5121 137.374 45.5121C137.044 45.5121 136.778 45.4378 136.574 45.2877C136.371 45.1376 136.227 44.931 136.144 44.6631C136.085 44.4775 136.055 44.1418 136.055 43.6543V42.3857L136.057 42.3874Z" fill="#F4D315"/>
<path d="M141.862 42.8138L141.395 43.2867C141.205 43.0962 141.033 43.001 140.879 43.001C140.795 43.001 140.728 43.0188 140.68 43.0559C140.632 43.093 140.608 43.1382 140.608 43.1914C140.608 43.2318 140.624 43.2705 140.654 43.3044C140.685 43.3383 140.759 43.3867 140.879 43.4465L141.154 43.5869C141.446 43.7321 141.645 43.8806 141.753 44.0323C141.862 44.1841 141.916 44.3616 141.916 44.565C141.916 44.8361 141.817 45.0621 141.621 45.2428C141.425 45.4236 141.162 45.514 140.833 45.514C140.395 45.514 140.044 45.3397 139.783 44.9927L140.247 44.4794C140.336 44.5843 140.439 44.6683 140.557 44.7328C140.675 44.7974 140.782 44.8297 140.874 44.8297C140.973 44.8297 141.054 44.8054 141.115 44.757C141.175 44.7086 141.205 44.6521 141.205 44.5892C141.205 44.4713 141.096 44.3568 140.877 44.2454L140.622 44.1163C140.137 43.8677 139.893 43.5578 139.893 43.1834C139.893 42.9429 139.985 42.7363 140.169 42.5652C140.352 42.3941 140.586 42.3086 140.873 42.3086C141.068 42.3086 141.252 42.3522 141.424 42.4393C141.596 42.5265 141.742 42.6508 141.862 42.8138Z" fill="#F4D315"/>
<path d="M146.088 44.1324H143.664C143.699 44.3487 143.793 44.5214 143.945 44.6489C144.096 44.7764 144.29 44.841 144.526 44.841C144.808 44.841 145.05 44.7409 145.252 44.5407L145.888 44.8426C145.73 45.0701 145.539 45.238 145.319 45.3477C145.099 45.4575 144.835 45.5108 144.532 45.5108C144.061 45.5108 143.677 45.3607 143.381 45.0588C143.085 44.757 142.937 44.3793 142.937 43.9258C142.937 43.4723 143.085 43.0752 143.379 42.7686C143.675 42.4619 144.045 42.3086 144.491 42.3086C144.964 42.3086 145.349 42.4619 145.646 42.7686C145.942 43.0752 146.09 43.482 146.09 43.9855L146.087 44.1308L146.088 44.1324ZM145.333 43.5304C145.284 43.3609 145.185 43.2221 145.039 43.1156C144.892 43.0091 144.722 42.9558 144.528 42.9558C144.317 42.9558 144.133 43.0155 143.973 43.135C143.875 43.2092 143.781 43.3416 143.696 43.5304H145.332H145.333Z" fill="#F4D315"/>
<path d="M149.081 42.3867H149.82L150.425 44.1201L151.074 42.3867H151.527L152.165 44.1008L152.771 42.3867H153.514L152.417 45.4339H151.939L151.297 43.6973L150.637 45.4339H150.164L149.081 42.3867Z" fill="#F4D315"/>
<path d="M157.518 44.1324H155.095C155.13 44.3487 155.224 44.5214 155.375 44.6489C155.526 44.7764 155.72 44.841 155.956 44.841C156.238 44.841 156.48 44.7409 156.682 44.5407L157.318 44.8426C157.16 45.0701 156.969 45.238 156.749 45.3477C156.529 45.4575 156.265 45.5108 155.962 45.5108C155.491 45.5108 155.107 45.3607 154.811 45.0588C154.515 44.757 154.367 44.3793 154.367 43.9258C154.367 43.4723 154.515 43.0752 154.809 42.7686C155.104 42.4619 155.475 42.3086 155.921 42.3086C156.394 42.3086 156.779 42.4619 157.076 42.7686C157.372 43.0752 157.52 43.482 157.52 43.9855L157.517 44.1308L157.518 44.1324ZM156.764 43.5304C156.714 43.3609 156.615 43.2221 156.469 43.1156C156.322 43.0091 156.152 42.9558 155.958 42.9558C155.747 42.9558 155.563 43.0155 155.403 43.135C155.305 43.2092 155.211 43.3416 155.126 43.5304H156.762H156.764Z" fill="#F4D315"/>
<path d="M163.785 43.0039L163.158 43.3541C163.04 43.2298 162.924 43.1427 162.807 43.0943C162.693 43.0459 162.557 43.0216 162.403 43.0216C162.121 43.0216 161.893 43.1072 161.718 43.2767C161.543 43.4477 161.457 43.6656 161.457 43.9319C161.457 44.1982 161.541 44.4016 161.709 44.5662C161.876 44.7292 162.097 44.8116 162.369 44.8116C162.707 44.8116 162.97 44.6954 163.158 44.4613L163.753 44.8745C163.432 45.299 162.976 45.512 162.389 45.512C161.86 45.512 161.446 45.3539 161.146 45.0359C160.847 44.718 160.697 44.3467 160.697 43.9206C160.697 43.6253 160.771 43.3541 160.915 43.1056C161.06 42.857 161.264 42.6617 161.525 42.5197C161.787 42.3777 162.078 42.3066 162.4 42.3066C162.698 42.3066 162.967 42.3664 163.204 42.4874C163.441 42.6085 163.636 42.7795 163.787 43.0007L163.785 43.0039Z" fill="#F4D315"/>
<path d="M167.25 42.3877H168.005V45.4349H167.25V45.1121C167.102 45.2541 166.956 45.3558 166.808 45.4188C166.66 45.4817 166.499 45.5124 166.327 45.5124C165.938 45.5124 165.602 45.359 165.32 45.054C165.037 44.749 164.895 44.3697 164.895 43.9161C164.895 43.4626 165.032 43.0607 165.306 42.7589C165.58 42.4571 165.913 42.3086 166.304 42.3086C166.484 42.3086 166.653 42.3425 166.813 42.4119C166.97 42.4813 167.117 42.5846 167.252 42.7234V42.3877H167.25ZM166.457 43.0139C166.225 43.0139 166.031 43.0978 165.876 43.2641C165.722 43.4319 165.645 43.645 165.645 43.9064C165.645 44.1679 165.723 44.3858 165.881 44.5569C166.038 44.7264 166.231 44.8119 166.461 44.8119C166.69 44.8119 166.894 44.728 167.05 44.5617C167.206 44.3939 167.284 44.176 167.284 43.9048C167.284 43.6337 167.206 43.4255 167.05 43.2608C166.894 43.0962 166.696 43.0139 166.457 43.0139Z" fill="#F4D315"/>
<path d="M169.334 42.3877H170.089V42.6992C170.259 42.5523 170.415 42.4506 170.554 42.3941C170.692 42.336 170.834 42.3086 170.979 42.3086C171.277 42.3086 171.53 42.4135 171.739 42.6249C171.914 42.8041 172.002 43.0688 172.002 43.4206V45.4333H171.256V44.0985C171.256 43.7354 171.24 43.4933 171.208 43.3738C171.177 43.2544 171.121 43.164 171.04 43.1011C170.958 43.0381 170.861 43.0075 170.743 43.0075C170.591 43.0075 170.46 43.0591 170.35 43.1624C170.24 43.2657 170.165 43.4093 170.122 43.5917C170.1 43.6869 170.089 43.8935 170.089 44.2099V45.4317H169.334V42.3845V42.3877Z" fill="#F4D315"/>
</g>
<defs>
<clipPath id="clip0_630_4209">
<rect width="172" height="50" fill="white"/>
</clipPath>
</defs>
</svg>
