<svg width="1080" height="310" viewBox="0 0 1080 310" fill="none" xmlns="http://www.w3.org/2000/svg">
<g clip-path="url(#clip0_230_1874)">
<path d="M154.89 309.78C240.433 309.78 309.78 240.433 309.78 154.89C309.78 69.3466 240.433 0 154.89 0C69.3466 0 0 69.3466 0 154.89C0 240.433 69.3466 309.78 154.89 309.78Z" fill="#0D71BA"/>
<path d="M72.87 131.45L72.78 124.83C72.78 114.39 74.46 106.81 77.81 102.09C81.79 96.5 88.75 93.7 98.69 93.7H133.27C139.55 93.7 143.96 92.92 146.51 91.37C147.81 90.56 148.88 89.6 149.68 88.48C150.98 86.68 151.8 84.69 152.1 82.51L153.03 75.61H156.76L157.69 82.51C158.01 84.69 158.81 86.67 160.11 88.48C161.85 90.84 164.56 92.39 168.22 93.14C170.08 93.51 172.85 93.7 176.52 93.7H211.1C221.04 93.7 228.01 96.5 231.98 102.09C235.34 106.81 237.01 114.39 237.01 124.83C237.01 125.89 236.98 128.09 236.92 131.45H232.94C232.54 120.34 225.85 114.42 217.3 113.02C216.25 112.89 215.94 112.8 212.03 112.9H179.5C171.43 112.9 165.66 111.39 162.21 108.38C158.76 105.37 156.32 100.47 154.89 93.7C153.46 100.47 151.07 105.32 147.71 108.24C144.17 111.35 138.36 112.9 130.28 112.9H97.75C93.84 112.9 93.22 112.96 92.16 113.09C83.54 114.24 76.65 121.76 76.82 131.45H72.86H72.87Z" fill="#F4D315"/>
<path d="M234.06 189.34V190.95C227.61 201.29 220.34 209.79 206.85 219.02C193.36 228.25 174.76 234.79 154.9 234.79C145.66 234.79 136.97 233.28 129.72 231.51C122.46 229.73 115.1 226.53 107.62 221.89C100.14 217.26 93.5801 212.01 87.9301 206.13C82.2901 200.25 78.1901 195.07 75.6501 190.57L75.8401 189.06L79.4701 185.43H80.7701C87.9101 192.48 122.4 207.53 156.19 207.53C189.98 207.53 224.43 190.16 229.76 185.53L231.16 185.43L234.07 189.34H234.06Z" fill="#F4D315"/>
<path d="M201.69 160.28C201.69 164.32 200.23 167.75 197.31 170.58C194.39 173.41 190.94 174.82 186.96 174.82C182.98 174.82 179.45 173.41 176.52 170.58C173.6 167.75 172.14 164.32 172.14 160.28C172.14 156.24 173.59 152.79 176.48 149.93C179.37 147.07 182.86 145.64 186.96 145.64C191.06 145.64 194.55 147.07 197.4 149.93C200.26 152.79 201.69 156.24 201.69 160.28Z" fill="#F4D315"/>
<path d="M108.26 146.28C117.71 151.68 127.89 155.44 137.93 157.08C137.32 159.09 137.32 166.17 141.24 171.16L138.35 173.51C135.05 171.94 130.39 169.31 124.36 165.63C118.33 161.95 113.5 158.66 109.87 155.77L106.82 147.84L108.26 146.28Z" fill="#F4D315"/>
<path d="M428.93 139.6C432.19 136.37 435.99 133.81 440.35 131.92C444.71 130.03 449.38 129.09 454.37 129.09C459.36 129.09 464.03 130.05 468.54 131.97C473.06 133.88 476.97 136.63 480.27 140.2L492.24 120.51C486.99 115.94 481.11 112.47 474.6 110.08C468.09 107.69 461.34 106.49 454.36 106.49C449.01 106.49 443.85 107.19 438.89 108.58C433.93 109.97 429.28 111.94 424.95 114.49C420.62 117.03 416.67 120.09 413.1 123.66C409.53 127.23 406.47 131.18 403.93 135.51C401.38 139.84 399.41 144.5 398.02 149.48C396.63 154.47 395.93 159.64 395.93 164.99C395.93 170.34 396.63 175.51 398.02 180.47C399.41 185.43 401.38 190.08 403.93 194.41C406.48 198.74 409.53 202.69 413.1 206.26C416.67 209.83 420.62 212.89 424.95 215.44C429.28 217.98 433.93 219.95 438.89 221.35C443.85 222.74 449.01 223.43 454.36 223.43C461.34 223.43 468.09 222.22 474.6 219.81C481.11 217.4 486.99 213.93 492.24 209.42L480.27 189.73C476.96 193.3 473.05 196.04 468.54 197.96C464.02 199.87 459.3 200.83 454.37 200.83C449.44 200.83 444.71 199.89 440.35 198C435.99 196.11 432.19 193.54 428.93 190.28C425.67 187.03 423.1 183.24 421.21 178.9C419.32 174.57 418.38 169.94 418.38 165C418.38 160.06 419.32 155.41 421.21 151.03C423.1 146.64 425.67 142.84 428.93 139.61V139.6Z" fill="#0D71BA"/>
<path d="M569.01 145.66C565.12 141.75 560.57 138.73 555.35 136.6C550.13 134.47 544.52 133.41 538.54 133.41C532.56 133.41 527.03 134.54 521.81 136.8C516.59 139.06 512.02 142.17 508.11 146.13C504.2 150.09 501.11 154.8 498.86 160.26C496.6 165.72 495.47 171.65 495.47 178.06C495.47 184.47 496.6 190.23 498.86 195.66C501.12 201.09 504.2 205.79 508.11 209.76C512.02 213.72 516.59 216.85 521.81 219.13C527.03 221.41 532.61 222.55 538.54 222.55C544.47 222.55 550.13 221.41 555.35 219.13C560.57 216.85 565.13 213.72 569.01 209.76C572.9 205.79 575.97 201.1 578.22 195.66C580.48 190.23 581.61 184.36 581.61 178.06C581.61 171.34 580.48 165.24 578.22 159.76C575.96 154.27 572.89 149.57 569.01 145.66ZM558.26 187.43C557.13 190.26 555.59 192.68 553.65 194.67C551.71 196.67 549.44 198.21 546.84 199.32C544.24 200.42 541.47 200.97 538.53 200.97C535.59 200.97 532.82 200.38 530.22 199.2C527.62 198.02 525.36 196.4 523.45 194.35C521.53 192.3 520.02 189.89 518.92 187.11C517.82 184.33 517.27 181.31 517.27 178.05C517.27 174.59 517.82 171.45 518.92 168.64C520.02 165.83 521.53 163.41 523.45 161.4C525.37 159.38 527.62 157.83 530.22 156.75C532.82 155.67 535.59 155.13 538.53 155.13C541.47 155.13 544.24 155.67 546.84 156.75C549.44 157.82 551.71 159.37 553.65 161.4C555.59 163.42 557.13 165.83 558.26 168.64C559.39 171.44 559.95 174.58 559.95 178.05C559.95 181.52 559.39 184.59 558.26 187.42V187.43Z" fill="#0D71BA"/>
<path d="M653.35 142.47C652.2 140.79 650.78 139.37 649.1 138.22C647.42 137.07 645.62 136.14 643.71 135.43C641.79 134.72 639.82 134.21 637.8 133.89C635.78 133.58 633.82 133.42 631.93 133.42C626 133.42 620.42 134.55 615.2 136.81C609.98 139.07 605.41 142.19 601.5 146.18C597.59 150.17 594.5 154.9 592.25 160.35C589.99 165.81 588.86 171.72 588.86 178.07C588.86 184.42 589.99 190.4 592.25 195.83C594.51 201.26 597.59 205.96 601.5 209.93C605.41 213.89 609.98 216.99 615.2 219.22C620.42 221.45 626 222.56 631.93 222.56C634.66 222.56 637.35 222.22 640 221.54C642.65 220.86 645.24 219.93 647.76 218.75C650.28 217.57 652.68 216.18 654.96 214.58C657.24 212.97 659.41 211.26 661.46 209.42L669.81 221H675.01V103.12H653.36V142.49L653.35 142.47ZM651.65 186.61C650.52 189.37 648.98 191.81 647.04 193.93C645.1 196.06 642.83 197.76 640.23 199.05C637.63 200.33 634.86 200.98 631.92 200.98C628.98 200.98 626.21 200.38 623.61 199.17C621.01 197.96 618.76 196.31 616.84 194.21C614.92 192.11 613.41 189.67 612.31 186.89C611.21 184.11 610.66 181.17 610.66 178.07C610.66 174.5 611.21 171.3 612.31 168.46C613.41 165.63 614.92 163.23 616.84 161.26C618.76 159.29 621.01 157.78 623.61 156.73C626.21 155.68 628.98 155.16 631.92 155.16C634.86 155.16 637.63 155.8 640.23 157.09C642.83 158.37 645.1 160.08 647.04 162.21C648.98 164.34 650.52 166.78 651.65 169.53C652.78 172.29 653.34 175.13 653.34 178.07C653.34 181.01 652.78 183.86 651.65 186.62V186.61Z" fill="#0D71BA"/>
<path d="M1077.05 142.15C1075.08 140.18 1072.19 139.2 1068.38 139.2C1064.57 139.2 1060.13 140.57 1055.42 143.31C1050.71 146.06 1045.91 150.64 1041.02 157.08C1036.13 163.52 1031.72 171.86 1027.79 182.12C1028.26 176.87 1028.86 172.46 1029.58 168.89C1030.29 165.31 1031.25 161.14 1032.44 156.37C1034.23 149.69 1035.12 145.4 1035.12 143.49C1035.12 141.82 1034.64 140.69 1033.69 140.09C1032.74 139.49 1031.07 139.2 1028.68 139.2C1024.27 139.2 1020.84 140.01 1018.4 141.61C1015.95 143.22 1014.2 145.75 1013.13 149.21C1011.06 155.76 1009.52 162.49 1008.42 169.38C1003.08 170.56 998.33 171.3 994.18 171.56C993.23 162.38 989.98 154.66 984.43 148.4C978.89 142.14 971.59 139.01 962.53 139.01C955.14 139.01 948.41 141.01 942.32 145C936.24 149 931.47 154.54 928.01 161.63C926.73 164.25 925.77 167.05 924.97 169.94C920.78 170.77 916.93 171.34 913.53 171.55C912.58 162.37 909.33 154.65 903.78 148.39C898.24 142.13 890.93 139 881.87 139C874.48 139 867.75 141 861.66 144.99C855.58 148.99 850.81 154.53 847.35 161.62C843.89 168.72 842.16 176.79 842.16 185.85C842.16 188.14 842.37 190.36 842.68 192.54C840.09 195.17 837.7 197.38 835.54 199.08C831.61 202.18 827.08 203.73 821.95 203.73C815.63 203.73 811.01 201.22 808.09 196.22C805.17 191.22 803.71 182.51 803.71 170.11C803.71 167.51 803.78 164.09 803.93 159.89C805.01 158.64 806.07 157.4 807.13 156.16H825.88C839.35 156.16 846.09 152.05 846.09 143.82C846.09 141.56 845.67 140.01 844.84 139.17C844.01 138.34 842.63 137.92 840.73 137.92H822.52C828.02 131.25 832.05 126.1 833.34 123.87C833.47 123.64 833.5 123.49 833.6 123.29C840.44 113.12 843.94 101.92 843.94 89.64C843.94 82.96 842.51 77.42 839.65 73.01C836.79 68.6 832.86 66.39 827.85 66.39C821.05 66.39 814.71 69.61 808.81 76.05C802.91 82.48 797.87 91.13 793.7 101.98C789.53 112.83 786.43 124.81 784.4 137.93H774.21C768.85 137.93 766.16 141.27 766.16 147.94C766.16 150.8 766.79 152.88 768.04 154.19C769.29 155.51 771.71 156.16 775.28 156.16H782.25C782.16 157.53 782.11 158.88 782.04 160.24C772.22 170.02 746.19 193.83 746.19 193.83C746.19 193.83 743.17 196.54 741.47 197.61C739.76 198.68 737.94 199.51 736 200.09C734.06 200.67 732.04 200.96 729.94 200.96C729.1 200.96 728.26 200.92 727.42 200.84C726.58 200.76 725.74 200.59 724.9 200.33L765.22 151.75C763.22 148.92 760.92 146.36 758.29 144.08C755.66 141.8 752.84 139.86 749.82 138.29C746.8 136.72 743.61 135.51 740.25 134.67C736.89 133.83 733.45 133.41 729.93 133.41C724 133.41 718.42 134.49 713.2 136.64C707.98 138.8 703.41 141.81 699.5 145.7C695.59 149.59 692.5 154.28 690.25 159.8C687.99 165.31 686.86 171.41 686.86 178.07C686.86 184.73 687.99 190.55 690.25 195.99C692.51 201.42 695.59 206.11 699.5 210.04C703.41 213.98 707.98 217.05 713.2 219.25C718.42 221.45 724 222.56 729.93 222.56C733.45 222.56 736.87 222.15 740.21 221.34C743.54 220.52 746.72 219.33 749.74 217.75C752.76 216.17 755.57 214.26 758.17 212C760.7 209.8 762.94 207.31 764.9 204.56H764.91C764.91 204.56 772.44 196.04 782.37 184.72C785.15 210.51 797.09 223.42 818.2 223.42C826.07 223.42 833.04 221.39 839.12 217.34C842.54 215.06 845.79 212.38 848.9 209.39C851.23 212.87 854.12 215.84 857.62 218.23C862.69 221.69 868.8 223.42 875.95 223.42C884.41 223.42 891.98 220.41 898.66 214.39C905.33 208.37 909.8 200.35 912.07 190.34C915.85 190.18 919.46 189.78 922.96 189.21C923.33 194.62 924.55 199.72 926.73 204.47C929.35 210.19 933.19 214.78 938.26 218.24C943.33 221.7 949.44 223.43 956.59 223.43C965.05 223.43 972.62 220.42 979.3 214.4C985.97 208.38 990.44 200.36 992.71 190.35C997.6 190.15 1002.22 189.56 1006.65 188.66C1006.6 190.24 1006.48 191.8 1006.48 193.4C1006.48 203.89 1007.4 211.52 1009.25 216.29C1011.1 221.06 1014.28 223.44 1018.82 223.44C1022.51 223.44 1025.22 222.45 1026.95 220.49C1028.68 218.52 1030.2 214.73 1031.51 209.13C1033.3 201.86 1035.65 194.94 1038.57 188.39C1041.49 181.83 1044.35 176.56 1047.15 172.56C1049.95 168.57 1052.13 166.57 1053.68 166.57C1054.99 166.57 1055.65 167.53 1055.65 169.43C1055.65 172.06 1054.93 178.13 1053.5 187.67C1051.83 198.64 1051 206.51 1051 211.27C1051 215.33 1051.89 218.37 1053.68 220.39C1055.47 222.42 1058.33 223.43 1062.26 223.43C1066.43 223.43 1069.44 222.44 1071.29 220.48C1073.14 218.51 1074.06 215.26 1074.06 210.73C1074.06 202.74 1074.42 195.5 1075.13 189C1075.85 182.51 1076.8 175.62 1077.99 168.35C1079.3 159.77 1079.95 153.92 1079.95 150.83C1079.95 147.02 1078.97 144.12 1077 142.15H1077.05ZM810.8 108.89C812.76 100.96 814.85 94.77 817.06 90.29C819.27 85.82 821.26 83.59 823.05 83.59C825.67 83.59 826.99 87.11 826.99 94.14C826.99 100.34 825.23 107.22 821.71 114.79C819.3 119.97 816 124.78 811.94 129.27C811.17 130.09 810.46 130.83 809.72 131.62C808.49 132.86 807.25 134.09 805.88 135.27C807.19 125.62 808.83 116.83 810.8 108.89ZM710.91 189.24C710.49 188.51 710.15 187.67 709.89 186.72C709.63 185.77 709.41 184.79 709.22 183.77C709.03 182.75 708.9 181.73 708.83 180.74C708.75 179.75 708.71 178.85 708.71 178.06C708.71 174.55 709.26 171.38 710.36 168.57C711.46 165.76 712.97 163.36 714.89 161.36C716.81 159.37 719.06 157.83 721.66 156.76C724.26 155.68 727.03 155.14 729.97 155.14C731.02 155.14 732.03 155.19 733 155.3C733.97 155.41 734.96 155.65 735.95 156.01L710.91 189.24ZM887.33 199.82C884.53 202.92 881.22 204.47 877.41 204.47C873.95 204.47 870.94 202.74 868.38 199.28C865.81 195.82 864.53 190.82 864.53 184.26C864.53 175.92 866.11 169.45 869.27 164.86C872.43 160.27 876.39 157.97 881.16 157.97H882.05C881.69 159.88 881.52 161.79 881.52 163.69C881.52 168.22 882.5 172.52 884.47 176.57C886.44 180.63 889.27 183.9 892.97 186.41C892.01 192.25 890.14 196.72 887.34 199.82H887.33ZM967.98 199.82C965.18 202.92 961.87 204.47 958.06 204.47C954.6 204.47 951.59 202.74 949.03 199.28C946.46 195.82 945.18 190.82 945.18 184.26C945.18 175.92 946.76 169.45 949.92 164.86C953.08 160.27 957.04 157.97 961.81 157.97H962.7C962.34 159.88 962.17 161.79 962.17 163.69C962.17 168.22 963.15 172.52 965.12 176.57C967.09 180.63 969.92 183.9 973.62 186.41C972.66 192.25 970.79 196.72 967.99 199.82H967.98Z" fill="#0D71BA"/>
<path d="M1057.27 27.8101C1061.07 27.8101 1064.77 28.7801 1068.37 30.7101C1071.97 32.6401 1074.8 35.4201 1076.88 39.0401C1078.96 42.6601 1080 46.4901 1080 50.5501C1080 54.6101 1078.99 58.3901 1076.96 61.9001C1074.93 65.4101 1072.16 68.1901 1068.63 70.2301C1065.11 72.2701 1061.32 73.2901 1057.26 73.2901C1053.2 73.2901 1049.42 72.2701 1045.89 70.2301C1042.37 68.1901 1039.59 65.4201 1037.56 61.9001C1035.53 58.3901 1034.52 54.6001 1034.52 50.5501C1034.52 46.5001 1035.55 42.6301 1037.62 39.0601C1039.69 35.4901 1042.5 32.7301 1046.05 30.7701C1049.6 28.8001 1053.34 27.8201 1057.24 27.8201L1057.27 27.8101ZM1057.27 31.3301C1053.96 31.3301 1050.82 32.1601 1047.82 33.8201C1044.83 35.4801 1042.45 37.8201 1040.7 40.8401C1038.94 43.8501 1038.07 47.0901 1038.07 50.5401C1038.07 53.9901 1038.93 57.1701 1040.64 60.1401C1042.35 63.1101 1044.7 65.4601 1047.67 67.1701C1050.64 68.8801 1053.84 69.7401 1057.27 69.7401C1060.7 69.7401 1063.88 68.8801 1066.86 67.1701C1069.84 65.4501 1072.19 63.1001 1073.91 60.1101C1075.62 57.1201 1076.48 53.9301 1076.48 50.5401C1076.48 47.1501 1075.6 43.8901 1073.83 40.8301C1072.06 37.7601 1069.67 35.4201 1066.64 33.7801C1063.62 32.1501 1060.49 31.3301 1057.27 31.3301ZM1046.76 61.8301V60.5501L1047.2 60.5801C1047.97 60.5801 1048.51 60.5201 1048.82 60.4101C1049.13 60.3001 1049.34 60.1101 1049.44 59.8701C1049.54 59.6201 1049.6 59.1401 1049.6 58.4401V40.8201C1049.6 39.9501 1049.54 39.3601 1049.43 39.0701C1049.32 38.7801 1049.13 38.5801 1048.87 38.4801C1048.61 38.3801 1048.12 38.3201 1047.39 38.3201H1046.77V36.9501H1057.87C1060.14 36.9501 1061.87 37.2301 1063.08 37.7801C1064.29 38.3301 1065.14 39.1401 1065.65 40.2101C1066.16 41.2801 1066.41 42.2901 1066.41 43.2501C1066.41 44.1001 1066.2 44.9701 1065.79 45.8501C1065.37 46.7301 1064.74 47.5001 1063.89 48.1401C1063.04 48.7901 1061.75 49.3001 1060.02 49.7001C1060.75 49.9501 1061.28 50.1901 1061.61 50.4201C1061.94 50.6501 1062.34 51.0401 1062.81 51.5901C1063.28 52.1401 1063.63 52.6201 1063.87 53.0401C1064.11 53.4501 1064.51 54.2501 1065.07 55.4101C1065.74 56.8401 1066.3 57.9501 1066.75 58.7301C1067.21 59.5101 1067.59 60.0101 1067.89 60.2301C1068.19 60.4501 1068.63 60.5601 1069.22 60.5601V61.8401H1065.51C1064.39 61.8401 1063.61 61.6601 1063.17 61.2901C1062.73 60.9301 1061.83 59.2001 1060.46 56.1001C1059.67 54.2901 1059.09 53.0501 1058.71 52.3901C1058.33 51.7301 1057.94 51.2601 1057.51 50.9901C1057.08 50.7201 1056.43 50.5801 1055.56 50.5801C1055.29 50.5801 1054.79 50.6101 1054.06 50.6701V58.1201C1054.06 58.9701 1054.13 59.5401 1054.28 59.8301C1054.43 60.1201 1054.63 60.3001 1054.89 60.3801C1055.15 60.4501 1055.8 60.5101 1056.84 60.5501V61.8301H1046.77H1046.76ZM1054.06 48.8901C1054.79 48.9501 1055.34 48.9801 1055.71 48.9801C1058.27 48.9801 1059.93 48.4101 1060.7 47.2801C1061.47 46.1501 1061.85 44.8801 1061.85 43.4901C1061.85 41.9101 1061.4 40.6701 1060.51 39.7601C1059.62 38.8601 1058.42 38.4001 1056.92 38.4001C1056.55 38.4001 1056.09 38.4301 1055.56 38.4801C1055.03 38.5301 1054.7 38.6001 1054.56 38.6801C1054.42 38.7601 1054.31 38.9201 1054.2 39.1501C1054.09 39.3801 1054.04 39.6401 1054.04 39.9301V48.8801L1054.06 48.8901Z" fill="#0D71BA"/>
<path d="M420.66 260.46L417.26 263.7C414.95 261.26 412.35 260.04 409.46 260.04C407.02 260.04 404.97 260.87 403.3 262.54C401.63 264.21 400.8 266.26 400.8 268.7C400.8 270.4 401.17 271.91 401.91 273.23C402.65 274.55 403.69 275.58 405.05 276.34C406.4 277.09 407.9 277.47 409.56 277.47C410.97 277.47 412.26 277.21 413.43 276.68C414.6 276.15 415.88 275.19 417.28 273.81L420.57 277.25C418.68 279.09 416.9 280.37 415.23 281.08C413.56 281.79 411.64 282.15 409.49 282.15C405.52 282.15 402.28 280.89 399.75 278.38C397.22 275.86 395.96 272.64 395.96 268.71C395.96 266.17 396.54 263.9 397.69 261.93C398.84 259.95 400.49 258.36 402.63 257.16C404.77 255.96 407.09 255.36 409.56 255.36C411.67 255.36 413.69 255.81 415.64 256.69C417.59 257.58 419.27 258.84 420.68 260.48L420.66 260.46Z" fill="#0D71BA"/>
<path d="M427.96 255.33H432.66V264.53C433.59 263.73 434.52 263.13 435.45 262.73C436.38 262.33 437.34 262.13 438.3 262.13C440.17 262.13 441.75 262.78 443.04 264.07C444.14 265.19 444.69 266.84 444.69 269.01V281.48H440.02V273.2C440.02 271.01 439.92 269.53 439.71 268.76C439.5 267.99 439.15 267.41 438.64 267.03C438.13 266.65 437.52 266.46 436.77 266.46C435.81 266.46 434.99 266.78 434.3 267.41C433.61 268.04 433.13 268.91 432.87 270.01C432.73 270.58 432.66 271.87 432.66 273.9V281.48H427.96V255.32V255.33Z" fill="#0D71BA"/>
<path d="M466.75 262.62H471.49V281.5H466.75V279.5C465.82 280.38 464.9 281.01 463.97 281.4C463.04 281.79 462.03 281.98 460.95 281.98C458.51 281.98 456.4 281.03 454.63 279.14C452.86 277.25 451.96 274.9 451.96 272.09C451.96 269.28 452.82 266.79 454.54 264.92C456.26 263.06 458.35 262.13 460.81 262.13C461.94 262.13 463 262.34 464 262.77C465 263.2 465.91 263.84 466.76 264.7V262.62H466.75ZM461.77 266.5C460.31 266.5 459.09 267.02 458.12 268.05C457.15 269.08 456.67 270.41 456.67 272.03C456.67 273.65 457.16 275 458.15 276.06C459.14 277.11 460.35 277.64 461.79 277.64C463.23 277.64 464.51 277.12 465.49 276.09C466.47 275.05 466.96 273.7 466.96 272.02C466.96 270.34 466.47 269.05 465.49 268.03C464.51 267.01 463.27 266.5 461.77 266.5Z" fill="#0D71BA"/>
<path d="M479.82 262.62H484.56V264.55C485.63 263.64 486.61 263.01 487.48 262.66C488.35 262.3 489.24 262.13 490.15 262.13C492.02 262.13 493.61 262.78 494.92 264.09C496.02 265.2 496.57 266.84 496.57 269.02V281.49H491.89V273.22C491.89 270.97 491.79 269.47 491.59 268.73C491.39 267.99 491.04 267.43 490.53 267.04C490.02 266.65 489.41 266.46 488.67 266.46C487.71 266.46 486.89 266.78 486.2 267.42C485.51 268.06 485.04 268.95 484.77 270.08C484.63 270.67 484.56 271.95 484.56 273.91V281.48H479.82V262.6V262.62Z" fill="#0D71BA"/>
<path d="M518.65 262.62H523.37V278.79C523.37 281.98 522.73 284.33 521.44 285.83C519.72 287.87 517.12 288.88 513.65 288.88C511.8 288.88 510.24 288.65 508.98 288.19C507.72 287.73 506.66 287.05 505.79 286.15C504.92 285.25 504.28 284.16 503.86 282.88H509.08C509.54 283.41 510.14 283.81 510.87 284.09C511.6 284.36 512.46 284.5 513.46 284.5C514.73 284.5 515.76 284.3 516.53 283.91C517.3 283.52 517.85 283.01 518.17 282.38C518.49 281.75 518.65 280.68 518.65 279.15C517.82 279.98 516.94 280.58 516.03 280.95C515.12 281.32 514.08 281.5 512.92 281.5C510.39 281.5 508.25 280.59 506.5 278.76C504.75 276.93 503.88 274.62 503.88 271.82C503.88 268.82 504.81 266.42 506.66 264.6C508.34 262.96 510.34 262.14 512.66 262.14C513.75 262.14 514.77 262.34 515.74 262.74C516.71 263.14 517.67 263.8 518.65 264.71V262.63V262.62ZM513.74 266.56C512.25 266.56 511.02 267.06 510.04 268.06C509.07 269.06 508.58 270.32 508.58 271.83C508.58 273.34 509.08 274.69 510.07 275.7C511.06 276.71 512.31 277.21 513.82 277.21C515.33 277.21 516.5 276.72 517.45 275.74C518.4 274.76 518.88 273.47 518.88 271.87C518.88 270.27 518.4 269.02 517.44 268.04C516.48 267.06 515.24 266.57 513.73 266.57L513.74 266.56Z" fill="#0D71BA"/>
<path d="M550.62 273.43H535.4C535.62 274.77 536.21 275.84 537.16 276.63C538.11 277.42 539.33 277.82 540.81 277.82C542.58 277.82 544.1 277.2 545.37 275.96L549.36 277.83C548.37 279.24 547.17 280.28 545.79 280.96C544.41 281.64 542.75 281.97 540.85 281.97C537.89 281.97 535.48 281.04 533.62 279.17C531.76 277.3 530.83 274.96 530.83 272.15C530.83 269.34 531.76 266.88 533.61 264.98C535.47 263.08 537.79 262.13 540.59 262.13C543.56 262.13 545.98 263.08 547.84 264.98C549.7 266.88 550.63 269.4 550.63 272.52L550.61 273.42L550.62 273.43ZM545.89 269.7C545.58 268.65 544.96 267.79 544.04 267.13C543.12 266.47 542.05 266.14 540.83 266.14C539.51 266.14 538.35 266.51 537.35 267.25C536.73 267.71 536.14 268.53 535.61 269.7H545.88H545.89Z" fill="#0D71BA"/>
<path d="M572.08 255.66H576.82V262.62H579.63V266.7H576.82V281.5H572.08V266.7H569.65V262.62H572.08V255.66Z" fill="#0D71BA"/>
<path d="M585.73 255.33H590.43V264.53C591.36 263.73 592.29 263.13 593.22 262.73C594.15 262.33 595.11 262.13 596.07 262.13C597.94 262.13 599.52 262.78 600.81 264.07C601.91 265.19 602.46 266.84 602.46 269.01V281.48H597.79V273.2C597.79 271.01 597.69 269.53 597.48 268.76C597.27 267.99 596.92 267.41 596.41 267.03C595.9 266.65 595.29 266.46 594.54 266.46C593.58 266.46 592.76 266.78 592.07 267.41C591.38 268.04 590.9 268.91 590.64 270.01C590.5 270.58 590.43 271.87 590.43 273.9V281.48H585.73V255.32V255.33Z" fill="#0D71BA"/>
<path d="M629.5 273.43H614.28C614.5 274.77 615.09 275.84 616.04 276.63C616.99 277.42 618.21 277.82 619.69 277.82C621.46 277.82 622.98 277.2 624.25 275.96L628.24 277.83C627.25 279.24 626.05 280.28 624.67 280.96C623.29 281.64 621.63 281.97 619.73 281.97C616.77 281.97 614.36 281.04 612.5 279.17C610.64 277.3 609.71 274.96 609.71 272.15C609.71 269.34 610.64 266.88 612.49 264.98C614.35 263.08 616.67 262.13 619.47 262.13C622.44 262.13 624.86 263.08 626.72 264.98C628.58 266.88 629.51 269.4 629.51 272.52L629.49 273.42L629.5 273.43ZM624.76 269.7C624.45 268.65 623.83 267.79 622.91 267.13C621.99 266.47 620.92 266.14 619.7 266.14C618.38 266.14 617.22 266.51 616.22 267.25C615.6 267.71 615.01 268.53 614.48 269.7H624.75H624.76Z" fill="#0D71BA"/>
<path d="M648.29 262.62H652.93L656.73 273.36L660.81 262.62H663.65L667.66 273.24L671.46 262.62H676.13L669.24 281.5H666.24L662.21 270.74L658.06 281.5H655.09L648.29 262.62Z" fill="#0D71BA"/>
<path d="M691.22 262.13C693 262.13 694.68 262.58 696.24 263.47C697.81 264.36 699.03 265.57 699.91 267.1C700.79 268.63 701.23 270.28 701.23 272.04C701.23 273.8 700.79 275.49 699.9 277.04C699.02 278.59 697.81 279.8 696.28 280.67C694.75 281.54 693.07 281.98 691.23 281.98C688.52 281.98 686.21 281.02 684.3 279.09C682.39 277.16 681.43 274.82 681.43 272.07C681.43 269.12 682.51 266.66 684.67 264.7C686.57 262.99 688.75 262.13 691.21 262.13H691.22ZM691.3 266.59C689.83 266.59 688.6 267.1 687.62 268.13C686.64 269.15 686.15 270.46 686.15 272.06C686.15 273.66 686.63 275.03 687.6 276.05C688.57 277.07 689.79 277.58 691.28 277.58C692.77 277.58 694 277.07 694.98 276.04C695.97 275.01 696.46 273.69 696.46 272.07C696.46 270.45 695.98 269.13 695.01 268.12C694.04 267.11 692.81 266.6 691.3 266.6V266.59Z" fill="#0D71BA"/>
<path d="M707.54 262.62H711.6V265C712.04 264.06 712.62 263.35 713.35 262.87C714.08 262.39 714.88 262.14 715.74 262.14C716.35 262.14 716.99 262.3 717.67 262.63L716.2 266.71C715.64 266.43 715.19 266.29 714.83 266.29C714.1 266.29 713.49 266.74 712.98 267.64C712.47 268.54 712.23 270.31 712.23 272.95L712.25 273.87V281.5H707.55V262.62H707.54Z" fill="#0D71BA"/>
<path d="M723.05 255.33H727.79V281.49H723.05V255.33Z" fill="#0D71BA"/>
<path d="M749.57 255.33H754.31V281.49H749.57V279.49C748.64 280.37 747.72 281 746.79 281.39C745.86 281.78 744.85 281.97 743.77 281.97C741.33 281.97 739.22 281.02 737.45 279.13C735.67 277.24 734.78 274.89 734.78 272.08C734.78 269.27 735.64 266.78 737.36 264.91C739.08 263.04 741.17 262.12 743.63 262.12C744.76 262.12 745.82 262.33 746.82 262.76C747.81 263.19 748.73 263.83 749.58 264.69V255.32L749.57 255.33ZM744.59 266.5C743.13 266.5 741.91 267.02 740.94 268.05C739.97 269.09 739.49 270.41 739.49 272.03C739.49 273.65 739.98 275 740.97 276.06C741.96 277.11 743.17 277.64 744.61 277.64C746.05 277.64 747.33 277.12 748.31 276.09C749.29 275.05 749.78 273.7 749.78 272.02C749.78 270.34 749.29 269.05 748.31 268.03C747.33 267.01 746.09 266.5 744.59 266.5Z" fill="#0D71BA"/>
<path d="M764.93 276.69L768.31 278.39L764.02 285.71L761.66 284.58L764.92 276.69H764.93Z" fill="#0D71BA"/>
<path d="M792.52 264.08H789.81L788.86 255.34H793.48L792.53 264.08H792.52Z" fill="#0D71BA"/>
<path d="M819.5 266.44L815.56 268.61C814.82 267.84 814.09 267.3 813.36 267C812.64 266.7 811.79 266.55 810.82 266.55C809.05 266.55 807.62 267.08 806.52 268.13C805.42 269.19 804.88 270.54 804.88 272.19C804.88 273.84 805.41 275.1 806.46 276.12C807.51 277.13 808.9 277.64 810.61 277.64C812.73 277.64 814.38 276.92 815.56 275.47L819.3 278.03C817.28 280.66 814.42 281.98 810.73 281.98C807.41 281.98 804.81 281 802.93 279.03C801.05 277.06 800.11 274.76 800.11 272.12C800.11 270.29 800.57 268.61 801.48 267.07C802.39 265.53 803.67 264.32 805.31 263.44C806.95 262.56 808.78 262.12 810.8 262.12C812.67 262.12 814.36 262.49 815.85 263.24C817.34 263.99 818.56 265.05 819.51 266.42L819.5 266.44Z" fill="#0D71BA"/>
<path d="M841.25 262.62H845.99V281.5H841.25V279.5C840.32 280.38 839.4 281.01 838.47 281.4C837.54 281.79 836.53 281.98 835.45 281.98C833.01 281.98 830.9 281.03 829.13 279.14C827.36 277.25 826.46 274.9 826.46 272.09C826.46 269.28 827.32 266.79 829.04 264.92C830.76 263.06 832.85 262.13 835.31 262.13C836.44 262.13 837.5 262.34 838.5 262.77C839.49 263.2 840.41 263.84 841.26 264.7V262.62H841.25ZM836.27 266.5C834.81 266.5 833.59 267.02 832.62 268.05C831.65 269.08 831.17 270.41 831.17 272.03C831.17 273.65 831.66 275 832.65 276.06C833.64 277.11 834.85 277.64 836.29 277.64C837.73 277.64 839.01 277.12 839.99 276.09C840.97 275.05 841.46 273.7 841.46 272.02C841.46 270.34 840.97 269.05 839.99 268.03C839.01 267.01 837.77 266.5 836.27 266.5Z" fill="#0D71BA"/>
<path d="M854.31 262.62H859.1V271.71C859.1 273.48 859.22 274.71 859.46 275.4C859.7 276.09 860.1 276.62 860.63 277C861.17 277.38 861.83 277.57 862.62 277.57C863.41 277.57 864.08 277.38 864.63 277.01C865.18 276.63 865.59 276.08 865.86 275.35C866.06 274.81 866.15 273.64 866.15 271.86V262.61H870.89V270.61C870.89 273.91 870.63 276.16 870.11 277.38C869.47 278.86 868.54 280 867.3 280.79C866.06 281.58 864.49 281.98 862.58 281.98C860.51 281.98 858.84 281.52 857.56 280.59C856.28 279.66 855.38 278.38 854.86 276.72C854.49 275.57 854.3 273.49 854.3 270.47V262.61L854.31 262.62Z" fill="#0D71BA"/>
<path d="M890.76 265.26L887.83 268.19C886.64 267.01 885.56 266.42 884.59 266.42C884.06 266.42 883.64 266.53 883.34 266.76C883.04 266.99 882.89 267.27 882.89 267.6C882.89 267.85 882.99 268.09 883.18 268.3C883.37 268.51 883.84 268.81 884.59 269.18L886.32 270.05C888.15 270.95 889.4 271.87 890.08 272.81C890.76 273.75 891.1 274.85 891.1 276.11C891.1 277.79 890.48 279.19 889.25 280.31C888.02 281.43 886.37 281.99 884.3 281.99C881.55 281.99 879.35 280.91 877.71 278.76L880.62 275.58C881.18 276.23 881.83 276.75 882.57 277.15C883.31 277.55 883.98 277.75 884.56 277.75C885.18 277.75 885.69 277.6 886.07 277.3C886.45 277 886.64 276.65 886.64 276.26C886.64 275.53 885.95 274.82 884.58 274.13L882.98 273.33C879.93 271.79 878.4 269.87 878.4 267.55C878.4 266.06 878.98 264.78 880.13 263.72C881.28 262.66 882.75 262.13 884.55 262.13C885.78 262.13 886.93 262.4 888.01 262.94C889.09 263.48 890.01 264.25 890.76 265.26Z" fill="#0D71BA"/>
<path d="M917.3 273.43H902.08C902.3 274.77 902.89 275.84 903.84 276.63C904.79 277.42 906.01 277.82 907.49 277.82C909.26 277.82 910.78 277.2 912.05 275.96L916.04 277.83C915.05 279.24 913.85 280.28 912.47 280.96C911.09 281.64 909.43 281.97 907.53 281.97C904.57 281.97 902.16 281.04 900.3 279.17C898.44 277.3 897.51 274.96 897.51 272.15C897.51 269.34 898.44 266.88 900.29 264.98C902.15 263.08 904.47 262.13 907.27 262.13C910.24 262.13 912.66 263.08 914.52 264.98C916.38 266.88 917.31 269.4 917.31 272.52L917.29 273.42L917.3 273.43ZM912.56 269.7C912.25 268.65 911.63 267.79 910.71 267.13C909.79 266.47 908.72 266.14 907.5 266.14C906.18 266.14 905.02 266.51 904.02 267.25C903.4 267.71 902.81 268.53 902.28 269.7H912.55H912.56Z" fill="#0D71BA"/>
<path d="M936.09 262.62H940.73L944.53 273.36L948.61 262.62H951.45L955.46 273.24L959.26 262.62H963.93L957.04 281.5H954.04L950.01 270.74L945.86 281.5H942.89L936.09 262.62Z" fill="#0D71BA"/>
<path d="M989.07 273.43H973.85C974.07 274.77 974.66 275.84 975.61 276.63C976.56 277.42 977.78 277.82 979.26 277.82C981.03 277.82 982.55 277.2 983.82 275.96L987.81 277.83C986.82 279.24 985.62 280.28 984.24 280.96C982.86 281.64 981.2 281.97 979.3 281.97C976.34 281.97 973.93 281.04 972.07 279.17C970.21 277.3 969.28 274.96 969.28 272.15C969.28 269.34 970.21 266.88 972.06 264.98C973.91 263.08 976.24 262.13 979.04 262.13C982.01 262.13 984.43 263.08 986.29 264.98C988.15 266.88 989.08 269.4 989.08 272.52L989.06 273.42L989.07 273.43ZM984.33 269.7C984.02 268.65 983.4 267.79 982.48 267.13C981.56 266.47 980.49 266.14 979.27 266.14C977.95 266.14 976.79 266.51 975.79 267.25C975.17 267.71 974.58 268.53 974.05 269.7H984.32H984.33Z" fill="#0D71BA"/>
<path d="M1028.42 266.44L1024.48 268.61C1023.74 267.84 1023.01 267.3 1022.28 267C1021.56 266.7 1020.71 266.55 1019.74 266.55C1017.97 266.55 1016.54 267.08 1015.44 268.13C1014.34 269.19 1013.8 270.54 1013.8 272.19C1013.8 273.84 1014.33 275.1 1015.38 276.12C1016.43 277.13 1017.82 277.64 1019.53 277.64C1021.65 277.64 1023.3 276.92 1024.48 275.47L1028.22 278.03C1026.2 280.66 1023.34 281.98 1019.65 281.98C1016.33 281.98 1013.73 281 1011.85 279.03C1009.97 277.06 1009.03 274.76 1009.03 272.12C1009.03 270.29 1009.49 268.61 1010.4 267.07C1011.31 265.53 1012.59 264.32 1014.23 263.44C1015.87 262.56 1017.7 262.12 1019.72 262.12C1021.59 262.12 1023.28 262.49 1024.77 263.24C1026.26 263.99 1027.48 265.05 1028.43 266.42L1028.42 266.44Z" fill="#0D71BA"/>
<path d="M1050.18 262.62H1054.92V281.5H1050.18V279.5C1049.25 280.38 1048.33 281.01 1047.4 281.4C1046.47 281.79 1045.46 281.98 1044.38 281.98C1041.94 281.98 1039.83 281.03 1038.06 279.14C1036.28 277.25 1035.39 274.9 1035.39 272.09C1035.39 269.28 1036.25 266.79 1037.97 264.92C1039.69 263.05 1041.78 262.13 1044.24 262.13C1045.37 262.13 1046.43 262.34 1047.43 262.77C1048.42 263.2 1049.34 263.84 1050.19 264.7V262.62H1050.18ZM1045.2 266.5C1043.74 266.5 1042.52 267.02 1041.55 268.05C1040.58 269.09 1040.1 270.41 1040.1 272.03C1040.1 273.65 1040.59 275 1041.58 276.06C1042.57 277.11 1043.78 277.64 1045.22 277.64C1046.66 277.64 1047.94 277.12 1048.92 276.09C1049.9 275.05 1050.39 273.7 1050.39 272.02C1050.39 270.34 1049.9 269.05 1048.92 268.03C1047.94 267.01 1046.7 266.5 1045.2 266.5Z" fill="#0D71BA"/>
<path d="M1063.26 262.62H1068V264.55C1069.07 263.64 1070.05 263.01 1070.92 262.66C1071.79 262.3 1072.68 262.13 1073.59 262.13C1075.46 262.13 1077.05 262.78 1078.36 264.09C1079.46 265.2 1080.01 266.84 1080.01 269.02V281.49H1075.33V273.22C1075.33 270.97 1075.23 269.47 1075.03 268.73C1074.83 267.99 1074.48 267.43 1073.97 267.04C1073.46 266.65 1072.85 266.46 1072.11 266.46C1071.15 266.46 1070.33 266.78 1069.64 267.42C1068.95 268.06 1068.48 268.95 1068.21 270.08C1068.07 270.67 1068 271.95 1068 273.91V281.48H1063.26V262.6V262.62Z" fill="#0D71BA"/>
</g>
<defs>
<clipPath id="clip0_230_1874">
<rect width="1080" height="309.79" fill="white"/>
</clipPath>
</defs>
</svg>
