<svg width="24" height="24" viewBox="0 0 24 24" fill="none" xmlns="http://www.w3.org/2000/svg">
<path fill-rule="evenodd" clip-rule="evenodd" d="M11.9979 4.39996L3.07791 19.854L20.9209 19.853L11.9979 4.39996ZM2.73191 21.054C2.55637 21.054 2.38393 21.0077 2.23192 20.92C2.0799 20.8322 1.95367 20.706 1.8659 20.5539C1.77814 20.4019 1.73193 20.2295 1.73193 20.0539C1.73193 19.8784 1.77814 19.706 1.86591 19.554L11.1319 3.49996C11.2197 3.34795 11.3459 3.22172 11.4979 3.13396C11.6499 3.0462 11.8224 3 11.9979 3C12.1734 3 12.3459 3.0462 12.4979 3.13396C12.6499 3.22172 12.7761 3.34795 12.8639 3.49996L22.1339 19.553C22.2217 19.705 22.2679 19.8774 22.2679 20.0529C22.2679 20.2285 22.2217 20.4009 22.1339 20.5529C22.0462 20.705 21.9199 20.8312 21.7679 20.919C21.6159 21.0067 21.4434 21.053 21.2679 21.053L2.73191 21.054ZM11.3719 9.95396H12.6269L12.5299 14.676H11.4699L11.3729 9.95396H11.3719ZM11.9979 17.098C11.9057 17.0995 11.814 17.0828 11.7283 17.0486C11.6426 17.0145 11.5646 16.9637 11.4987 16.8991C11.4328 16.8345 11.3804 16.7575 11.3446 16.6725C11.3087 16.5875 11.2902 16.4962 11.2899 16.404C11.2899 16.019 11.6019 15.716 11.9979 15.716C12.3979 15.716 12.7099 16.019 12.7099 16.404C12.7095 16.4965 12.6907 16.5881 12.6546 16.6733C12.6184 16.7585 12.5657 16.8356 12.4994 16.9002C12.4331 16.9648 12.3547 17.0156 12.2686 17.0495C12.1824 17.0835 12.0904 17.0999 11.9979 17.098Z" fill="#000305"/>
</svg>
