<svg width="22" height="18" viewBox="0 0 22 18" fill="none" xmlns="http://www.w3.org/2000/svg">
<path d="M10.0082 4.98767C9.89475 2.38601 12.0075 0 14.75 0C15.8245 0 16.817 0.357547 17.6129 0.959368L20.6395 0.508197C20.9172 0.46679 21.1949 0.584036 21.3589 0.81201C21.5229 1.03998 21.5458 1.34048 21.4182 1.59067L19.4846 5.38307C19.1544 12.1309 13.5794 17.5 6.75005 17.5C4.45521 17.5 2.27189 16.9968 0.374505 15.8992C0.092842 15.7363 -0.0516266 15.4103 0.0168399 15.0922C0.0853064 14.7741 0.351087 14.5364 0.674841 14.5038C1.37749 14.433 2.43928 14.2306 3.30591 13.915C3.74281 13.7559 4.08383 13.5844 4.30154 13.4175C4.3227 13.4013 4.34165 13.3859 4.35862 13.3715C1.3242 10.0338 0.258045 4.92157 1.51751 0.643417C1.60052 0.361446 1.8406 0.153957 2.13162 0.112663C2.42264 0.07137 2.71096 0.203885 2.86913 0.451635C4.47891 2.97305 7.1163 4.84513 10.0082 4.98767Z" fill="#0D71BA"/>
</svg>
